<?xml version="1.0" encoding="utf-8" standalone="yes"?>
<!DOCTYPE svg PUBLIC "-//W3C//DTD SVG 1.1//EN" "http://www.w3.org/Graphics/SVG/1.1/DTD/svg11.dtd">
<svg width="1033" height="937" viewBox="0 0 1033 937" style="fill:none;stroke:none;fill-rule:evenodd;clip-rule:evenodd;stroke-linecap:round;stroke-linejoin:round;stroke-miterlimit:1.5;" version="1.1" xmlns="http://www.w3.org/2000/svg" xmlns:xlink="http://www.w3.org/1999/xlink"><style class="text-font-style fontImports" data-font-family="Arial"></style><style class="text-font-style fontImports" data-font-family="Space Grotesk">@font-face {font-family: 'Space Grotesk Regular';src: url(https://fonts.napkin.ai/google-fonts/20250207/space-grotesk/space-grotesk_regular.ttf) format("truetype");font-weight: normal;font-style: normal;}</style><g id="items" style="isolation: isolate"><g id="blend" style="mix-blend-mode: normal"><g id="g-root-5.g-5_fr_1480e7vqoiozv-fill" data-item-order="-826556" transform="translate(290.5, 122.5009765625)"><g id="5.g-5_fr_1480e7vqoiozv-fill" stroke="none" fill="#95bdff"><g><path d="M 10.000003 250L 10 289.429L 70 238L 130 289.429L 130 250C 130 205.268 160.595 167.681 202 157.024L 202 178L 274 94L 202 10L 202 35.3182C 94.0012 47.2569 10.000013 138.819 10.000003 250Z"></path></g></g></g><g id="g-root-4.g-4_fr_qn6rjvqok1zh-fill" data-item-order="-826552" transform="translate(266.5, 350.5)"><g id="4.g-4_fr_qn6rjvqok1zh-fill" stroke="none" fill="#4f92ff"><g><path d="M 34 82L 34 202C 34 232.283 40.232 261.111 51.4834 287.27L 76 217.646L 159.19 233.217C 155.826 223.43 154 212.928 154 202L 154 82L 178 82L 94 10L 10 82L 34 82Z"></path></g></g></g><g id="g-root-3.g-3_fr_m7d9ffqok2rr-fill" data-item-order="-826548" transform="translate(295.7539978027344, 558.14697265625)"><g id="3.g-3_fr_m7d9ffqok2rr-fill" stroke="none" fill="#4e88e7"><g><path d="M 22.2295 79.6238L 10 114.354L 32.9316 101.1143C 70.0995 166.36 140.285 210.354 220.746 210.354C 308.377 210.354 383.82 158.17 417.694 83.1818L 334.746 98.707L 310.249 29.1401C 296.316 64.9635 261.496 90.3535 220.746 90.3535C 184.698 90.3535 153.291 70.4849 136.877 41.1012L 155.492 30.3538L 129.936 25.5704L 46.7461 10L 22.2295 79.6238Z"></path></g></g></g><g id="g-root-2.g-2_fr_hrjrazqok3k1-fill" data-item-order="-826544" transform="translate(583.7540283203125, 371.071044921875)"><g id="2.g-2_fr_hrjrazqok3k1-fill" stroke="none" fill="#507fcc"><g><path d="M 88.7462 61.4286L 28.7462 10L 28.7462 181.429C 28.7462 184.975 28.5538 188.477 28.179 191.924L 10 181.428L 46.7462 285.782L 155.492 265.428L 136.158 254.266C 144.307 231.509 148.746 206.987 148.746 181.429L 148.746 10L 88.7462 61.4286Z"></path></g></g></g><g id="g-root-1.g-1_fr_8wj857qok16z-fill" data-item-order="-826540" transform="translate(503.01800537109375, 146.5)"><g id="1.g-1_fr_8wj857qok16z-fill" stroke="none" fill="#415c87"><g><path d="M 61.4816 70L 10 130.062C 11.1555 130.021 12.3161 130 13.4816 130C 62.4371 130 102.8338 166.644 108.7389 214L 85.4816 214L 169.482 286L 253.482 214L 229.154 214C 222.927 100.2881 128.748 10.00001 13.4816 10C 12.3442 10 11.2089 10.0089 10.0756 10.0264L 61.4816 70Z"></path></g></g></g><g id="g-root-tx_kaizency_1q6d9mjqok3d1-fill" data-item-order="0" transform="translate(446.5, 38.5)"><g id="tx_kaizency_1q6d9mjqok3d1-fill" stroke="none" fill="#484848"><g><text style="font: bold 30px &quot;Space Grotesk Regular&quot;, sans-serif; white-space: pre;" font-weight="bold" font-size="30px" font-family="'Space Grotesk Regular', sans-serif"><tspan x="15" y="47" dominant-baseline="ideographic">دورة كايزن</tspan></text></g></g></g><g id="g-root-tx_repeatpr_hz0kqjqy8flw-fill" data-item-order="0" transform="translate(38.5, 231.3070068359375)"><g id="tx_repeatpr_hz0kqjqy8flw-fill" stroke="none" fill="#484848"><g><text style="font: bold 20px Arial, Helvetica, sans-serif; white-space: pre;" font-weight="bold" font-size="20px" font-family="Arial, Helvetica, sans-serif"><tspan x="126.97" y="33" dominant-baseline="ideographic">كرر العملية</tspan></text></g></g></g><g id="g-root-tx_identify_1umsd8bqy8g7b-fill" data-item-order="0" transform="translate(782.5, 230.3070068359375)"><g id="tx_identify_1umsd8bqy8g7b-fill" stroke="none" fill="#484848"><g><text style="font: bold 20px Arial, Helvetica, sans-serif; white-space: pre;" font-weight="bold" font-size="20px" font-family="Arial, Helvetica, sans-serif"><tspan x="12" y="33" dominant-baseline="ideographic">تحديد مجالات التحسين</tspan></text></g></g></g><g id="g-root-2_1cvj8cbqok1s6-fill" data-item-order="0" transform="translate(362.5, 242.5)"></g><g id="g-root-corr_141qol7qyjoqy-fill" data-item-order="0" transform="translate(602.5, 242.5)"></g><g id="g-root-tx_continuo_93dkhnqy8gel-fill" data-item-order="0" transform="translate(38.5, 267.3070068359375)"><g id="tx_continuo_93dkhnqy8gel-fill" stroke="none" fill="#484848"><g><text style="font: 15px Arial, Helvetica, sans-serif; white-space: pre;" font-size="15px" font-family="Arial, Helvetica, sans-serif"><tspan x="44.41" y="27" dominant-baseline="ideographic">السعي المستمر لتحقيق المزيد من </tspan><tspan x="148.58" y="45" dominant-baseline="ideographic">التحسينات.</tspan></text></g></g></g><g id="g-root-tx_recogniz_8z08vvqy8dtt-fill" data-item-order="0" transform="translate(782.5, 266.3070068359375)"><g id="tx_recogniz_8z08vvqy8dtt-fill" stroke="none" fill="#484848"><g><text style="font: 15px Arial, Helvetica, sans-serif; white-space: pre;" font-size="15px" font-family="Arial, Helvetica, sans-serif"><tspan x="12" y="27" dominant-baseline="ideographic">التعرف على المجالات الصغيرة التي </tspan><tspan x="12" y="45" dominant-baseline="ideographic">تحتاج إلى التغيير</tspan></text></g></g></g><g id="g-root-tx_standard_1d14mijqy8etm-fill" data-item-order="0" transform="translate(38.5, 452.3070068359375)"><g id="tx_standard_1d14mijqy8etm-fill" stroke="none" fill="#484848"><g><text style="font: bold 20px Arial, Helvetica, sans-serif; white-space: pre;" font-weight="bold" font-size="20px" font-family="Arial, Helvetica, sans-serif"><tspan x="12" y="33" dominant-baseline="ideographic">توحيد التحسينات</tspan></text></g></g></g><g id="g-root-tx_implemen_18k267vqy8dfq-fill" data-item-order="0" transform="translate(782.5, 446.3070068359375)"><g id="tx_implemen_18k267vqy8dfq-fill" stroke="none" fill="#484848"><g><text style="font: bold 20px Arial, Helvetica, sans-serif; white-space: pre;" font-weight="bold" font-size="20px" font-family="Arial, Helvetica, sans-serif"><tspan x="12" y="33" dominant-baseline="ideographic">تنفيذ التغييرات الصغيرة</tspan></text></g></g></g><g id="g-root-1_dj6pyzqycmj2-fill" data-item-order="0" transform="translate(326.5, 458.5)"></g><g id="g-root-tool_1lwrgfvqynv2a-fill" data-item-order="0" transform="translate(638.5, 458.5)"></g><g id="g-root-tx_establis_zpo457qy8gej-fill" data-item-order="0" transform="translate(38.5, 488.3070068359375)"><g id="tx_establis_zpo457qy8gej-fill" stroke="none" fill="#484848"><g><text style="font: 15px Arial, Helvetica, sans-serif; white-space: pre;" font-size="15px" font-family="Arial, Helvetica, sans-serif"><tspan x="12" y="30" dominant-baseline="ideographic">إرساء ممارسات جديدة كمعيار.</tspan></text></g></g></g><g id="g-root-tx_applymin_mcynlnqy8ftb-fill" data-item-order="0" transform="translate(782.5, 482.3070068359375)"><g id="tx_applymin_mcynlnqy8ftb-fill" stroke="none" fill="#484848"><g><text style="font: 15px Arial, Helvetica, sans-serif; white-space: pre;" font-size="15px" font-family="Arial, Helvetica, sans-serif"><tspan x="12" y="27" dominant-baseline="ideographic">تطبيق التعديلات البسيطة بشكل </tspan><tspan x="12" y="45" dominant-baseline="ideographic">متواصل.</tspan></text></g></g></g><g id="g-root-flut_4ik06zqymh3f-fill" data-item-order="0" transform="translate(482.5, 674.5)"></g><g id="g-root-tx_measurer_dhy4fvqy8e80-fill" data-item-order="0" transform="translate(410.5, 806.3070068359375)"><g id="tx_measurer_dhy4fvqy8e80-fill" stroke="none" fill="#484848"><g><text style="font: bold 20px Arial, Helvetica, sans-serif; white-space: pre;" font-weight="bold" font-size="20px" font-family="Arial, Helvetica, sans-serif"><tspan x="65.53" y="33" dominant-baseline="ideographic">قياس النتائج</tspan></text></g></g></g><g id="g-root-tx_evaluate_4mb46zqy8f0p-fill" data-item-order="0" transform="translate(410.5, 842.3070068359375)"><g id="tx_evaluate_4mb46zqy8f0p-fill" stroke="none" fill="#484848"><g><text style="font: 15px Arial, Helvetica, sans-serif; white-space: pre;" font-size="15px" font-family="Arial, Helvetica, sans-serif"><tspan x="56.74" y="30" dominant-baseline="ideographic">تقييم تأثير التغييرات.</tspan></text></g></g></g><g id="g-root-5.g-5_fr_1480e7vqoiozv-stroke" data-item-order="-826556" transform="translate(290.5, 122.5009765625)"><g id="5.g-5_fr_1480e7vqoiozv-stroke" fill="none" stroke-linecap="butt" stroke-linejoin="miter" stroke-miterlimit="4" stroke="#95bdff" stroke-width="1"><g><path d="M 10 249.9999L 10 289.4286L 70 238L 130 289.4286L 130 249.9999C 130 205.2678 160.5946 167.6814 202 157.0244L 202 178L 274 94L 202 10L 202 35.3182C 94.0012 47.2569 10 138.8187 10 249.9999Z"></path></g></g></g><g id="g-root-4.g-4_fr_qn6rjvqok1zh-stroke" data-item-order="-826552" transform="translate(266.5, 350.5)"><g id="4.g-4_fr_qn6rjvqok1zh-stroke" fill="none" stroke-linecap="butt" stroke-linejoin="miter" stroke-miterlimit="4" stroke="#4f92ff" stroke-width="1"><g><path d="M 34 82L 34 202C 34 232.2832 40.232 261.1108 51.4834 287.2703L 76 217.6465L 159.1896 233.2169C 155.826 223.4301 154 212.9283 154 202L 154 82L 178 82L 94 10L 10 82L 34 82Z"></path></g></g></g><g id="g-root-3.g-3_fr_m7d9ffqok2rr-stroke" data-item-order="-826548" transform="translate(295.7539978027344, 558.14697265625)"><g id="3.g-3_fr_m7d9ffqok2rr-stroke" fill="none" stroke-linecap="butt" stroke-linejoin="miter" stroke-miterlimit="4" stroke="#4e88e7" stroke-width="1"><g><path d="M 10 114.3538L 32.9316 101.1143C 70.0995 166.3596 140.2851 210.3535 220.7461 210.3535C 308.3771 210.3535 383.8198 158.1695 417.6941 83.1818L 334.7461 98.707L 310.2494 29.1401C 296.3163 64.9635 261.4963 90.3535 220.7461 90.3535C 184.6981 90.3535 153.2906 70.4849 136.8773 41.1012L 155.4923 30.3538L 46.7461 10L 10 114.3538Z"></path></g></g></g><g id="g-root-2.g-2_fr_hrjrazqok3k1-stroke" data-item-order="-826544" transform="translate(583.7540283203125, 371.071044921875)"><g id="2.g-2_fr_hrjrazqok3k1-stroke" fill="none" stroke-linecap="butt" stroke-linejoin="miter" stroke-miterlimit="4" stroke="#507fcc" stroke-width="1"><g><path d="M 88.7462 61.4286L 28.7462 10L 28.7462 181.4287C 28.7462 184.9754 28.5538 188.4771 28.179 191.9241L 10 181.4284L 46.7462 285.7822L 155.4923 265.4284L 136.1577 254.2656C 144.307 231.5094 148.7462 206.9875 148.7462 181.4287L 148.7462 10L 88.7462 61.4286Z"></path></g></g></g><g id="g-root-1.g-1_fr_8wj857qok16z-stroke" data-item-order="-826540" transform="translate(503.01800537109375, 146.5)"><g id="1.g-1_fr_8wj857qok16z-stroke" fill="none" stroke-linecap="butt" stroke-linejoin="miter" stroke-miterlimit="4" stroke="#415c87" stroke-width="1"><g><path d="M 61.4816 70L 10 130.0619C 11.1555 130.0207 12.3161 129.9999 13.4816 129.9999C 62.4371 129.9999 102.8338 166.6442 108.7389 214L 85.4816 214L 169.4816 286L 253.4816 214L 229.1539 214C 222.9274 100.2881 128.7485 10 13.4816 10C 12.3442 10 11.2089 10.0089 10.0756 10.0264L 61.4816 70Z"></path></g></g></g><g id="g-root-tx_kaizency_1q6d9mjqok3d1-stroke" data-item-order="0" transform="translate(446.5, 38.5)"></g><g id="g-root-tx_repeatpr_hz0kqjqy8flw-stroke" data-item-order="0" transform="translate(38.5, 231.3070068359375)"></g><g id="g-root-tx_identify_1umsd8bqy8g7b-stroke" data-item-order="0" transform="translate(782.5, 230.3070068359375)"></g><g id="g-root-2_1cvj8cbqok1s6-stroke" data-item-order="0" transform="translate(362.5, 242.5)"><g id="2_1cvj8cbqok1s6-stroke" fill="none" stroke-linecap="butt" stroke-linejoin="miter" stroke-miterlimit="4" stroke="#ffffff" stroke-width="1"><g><path d="M 33.999397 33.839001C 36.7486 33.839001 38.977402 31.610201 38.977402 28.860901C 38.977402 26.11158 36.7486 23.88282 33.999397 23.88282C 31.25 23.88282 29.02124 26.11158 29.02124 28.860901C 29.02124 31.610201 31.25 33.839001 33.999397 33.839001ZM 42.3428 41.580002C 41.2528 38.009003 37.877197 35.3316 33.999599 35.3316C 30.122 35.3316 26.746441 38.009003 25.6565 41.580002M 50.802399 19.791859C 46.766201 15.02342 40.736603 11.996094 34 11.996094C 21.84758 11.996094 11.996094 21.84758 11.996094 34C 11.996094 36.552399 12.43064 39.003201 13.2298 41.2826M 17.243721 48.262402C 21.27972 52.999599 27.289 56.004002 34 56.004002C 46.152401 56.004002 56.004002 46.152401 56.004002 34C 56.004002 31.3298 55.528198 28.77062 54.6572 26.402679M 44.476601 20.4375L 51.370998 20.4375L 51.370998 13.543159M 23.523441 47.562401L 16.62908 47.562401L 16.62908 54.456799"></path></g></g></g><g id="g-root-corr_141qol7qyjoqy-stroke" data-item-order="0" transform="translate(602.5, 242.5)"><g id="corr_141qol7qyjoqy-stroke" fill="none" stroke-linecap="butt" stroke-linejoin="miter" stroke-miterlimit="4" stroke="#ffffff" stroke-width="1"><g><path d="M 29 33L 39 23M 39.585999 16.414C 39.210899 16.788986 39.000114 17.297611 39 17.827999L 39 23L 44.172001 23C 44.702389 22.999886 45.211014 22.789099 45.585999 22.414L 51 17L 45 17L 45 11ZM 29 43C 23.870075 42.998661 19.5732 39.115749 19.053965 34.012169C 18.534729 28.908587 21.961569 24.239868 26.986116 23.205423C 32.010662 22.170977 37.003021 25.106361 38.542 30M 29 51C 21.847187 50.995258 15.375898 46.755779 12.514719 40.200142C 9.65354 33.644501 10.945453 26.016806 15.805803 20.76897C 20.666153 15.521139 28.172562 13.649081 34.928001 16M 33 45C 33 51.627419 38.372581 57 45 57C 51.627419 57 57 51.627419 57 45C 57 38.372581 51.627419 33 45 33C 38.372581 33 33 38.372581 33 45ZM 50.348 41.512001L 44.537998 49.257999C 44.276516 49.605347 43.877514 49.822548 43.443855 49.853607C 43.010197 49.884663 42.584312 49.72654 42.276001 49.419998L 39.276001 46.419998"></path></g></g></g><g id="g-root-tx_continuo_93dkhnqy8gel-stroke" data-item-order="0" transform="translate(38.5, 267.3070068359375)"></g><g id="g-root-tx_recogniz_8z08vvqy8dtt-stroke" data-item-order="0" transform="translate(782.5, 266.3070068359375)"></g><g id="g-root-tx_standard_1d14mijqy8etm-stroke" data-item-order="0" transform="translate(38.5, 452.3070068359375)"></g><g id="g-root-tx_implemen_18k267vqy8dfq-stroke" data-item-order="0" transform="translate(782.5, 446.3070068359375)"></g><g id="g-root-1_dj6pyzqycmj2-stroke" data-item-order="0" transform="translate(326.5, 458.5)"><g id="1_dj6pyzqycmj2-stroke" fill="none" stroke-linecap="butt" stroke-linejoin="miter" stroke-miterlimit="4" stroke="#ffffff" stroke-width="1"><g><path d="M 57 11L 35.48 37.200001C 35.128273 37.67128 34.586952 37.963886 34 38C 33.414814 38.015984 32.852005 37.77478 32.459999 37.34L 26 30M 49.759998 27.459999C 50.191959 28.404705 50.995499 29.128614 51.98 29.459999L 54.5 30.360001C 55.995079 30.895222 56.992718 32.312008 56.992718 33.900002C 56.992718 35.487991 55.995079 36.904778 54.5 37.440002L 52 38.440002C 51.015499 38.771385 50.21196 39.495293 49.779999 40.440002C 49.359425 41.409695 49.359425 42.510307 49.779999 43.48L 51 46C 51.671631 47.433632 51.373306 49.134384 50.253845 50.253845C 49.134384 51.373306 47.433632 51.671631 46 51L 43.580002 49.84C 42.610306 49.419426 41.509697 49.419426 40.540001 49.84C 39.595295 50.271957 38.871384 51.0755 38.540001 52.060001L 37.639999 54.580002C 37.104778 56.075077 35.687992 57.07272 34.099998 57.07272C 32.512009 57.07272 31.095221 56.075077 30.559999 54.579998L 29.559999 52C 29.228615 51.015499 28.504705 50.21196 27.559999 49.779999C 26.590305 49.359425 25.489695 49.359425 24.52 49.779999L 22 51C 20.566368 51.671631 18.865616 51.373306 17.746155 50.253845C 16.626694 49.134384 16.328369 47.433632 17 46L 18.16 43.580002C 18.580576 42.610306 18.580576 41.509697 18.16 40.540001C 17.728041 39.595295 16.9245 38.871384 15.940001 38.540001L 13.42 37.639999C 11.924922 37.104778 10.92728 35.687992 10.92728 34.099998C 10.92728 32.512009 11.924922 31.095221 13.42 30.559999L 16 29.559999C 16.984501 29.228615 17.78804 28.504705 18.220001 27.559999C 18.640575 26.590305 18.640575 25.489695 18.220001 24.52L 17 22C 16.328369 20.566368 16.626694 18.865616 17.746155 17.746155C 18.865616 16.626694 20.566368 16.328369 22 17L 24.42 18.16C 25.389694 18.580576 26.490307 18.580576 27.460001 18.16C 28.43045 17.764149 29.191637 16.981215 29.559999 16L 30.459999 13.48C 30.995222 11.984921 32.412006 10.987281 34 10.987281C 35.58799 10.987281 37.004776 11.984921 37.540001 13.48L 38.440002 16C 38.771385 16.984501 39.495293 17.78804 40.440002 18.220001"></path></g></g></g><g id="g-root-tool_1lwrgfvqynv2a-stroke" data-item-order="0" transform="translate(638.5, 458.5)"><g id="tool_1lwrgfvqynv2a-stroke" fill="none" stroke-linecap="butt" stroke-linejoin="miter" stroke-miterlimit="4" stroke="#ffffff" stroke-width="1"><g><path d="M 10 10M 19.18408 34.615997L 20.98406 33.015999C 21.584061 32.416 21.98406 31.416 21.98406 30.615999C 21.98406 29.815981 21.584061 28.81596 20.98406 28.21596L 19.18408 26.61598C 18.18408 25.61598 17.784081 24.21596 18.384079 22.81596C 18.984081 21.615959 20.184101 20.615959 21.584099 20.81596L 23.98406 21.01598C 24.98406 21.01598 25.7841 20.61598 26.584101 20.01598C 27.184099 19.415981 27.584101 18.41596 27.584101 17.41596L 27.384081 15.01598C 27.384081 13.61598 28.18408 12.41596 29.384081 11.815962C 30.584 11.215962 32.183998 11.61598 33.183998 12.61598L 34.784 14.41596C 35.384003 15.015961 36.384003 15.41596 37.183998 15.41596C 38.183998 15.41596 38.984001 15.015961 39.584 14.41596L 41.183998 12.61598C 42.183998 11.61598 43.584 11.215962 44.984001 11.815962C 46.183998 12.41596 47.183998 13.61598 46.984001 15.01598L 46.784 17.41596C 46.784 18.41596 47.183998 19.215981 47.784 20.01598C 48.383999 20.61598 49.383999 21.01598 50.383999 21.01598L 52.784 20.81596C 54.183998 20.81596 55.383999 21.615959 55.984001 22.81596C 56.584 24.015961 56.183998 25.61598 55.183998 26.61598L 53.383999 28.21596C 52.784 28.81596 52.383999 29.815981 52.383999 30.615999C 52.383999 31.416 52.784 32.416 53.383999 33.015999L 55.183998 34.615997C 56.183998 35.615997 56.584 37.015999 55.984001 38.416C 55.383999 39.615997 54.183998 40.615997 52.784 40.416L 50.383999 40.216C 49.383999 40.216 48.584 40.615997 47.784 41.216C 47.183998 41.816002 46.784 42.816002 46.784 43.816002L 46.984001 46.216C 46.984001 47.616001 46.183998 48.816002 44.984001 49.416C 43.784 50.015999 42.183998 49.616001 41.183998 48.616001L 39.584 46.816002C 38.984001 46.216 37.984001 45.816002 37.183998 45.816002C 36.183998 45.816002 35.384003 46.216 34.784 46.816002L 33.183998 48.616001M 46.1842 33.416C 45.784199 34.615997 45.1842 35.816002 44.1842 36.816002C 41.584198 39.416 37.784203 40.015999 34.384201 38.816002L 17.78414 55.416C 16.38414 56.816002 14.18414 56.816002 12.78414 55.416C 11.38413 54.015999 11.38413 51.816002 12.78414 50.416L 29.384159 33.816002C 27.784161 30.016001 28.98414 25.41596 32.9842 22.81596C 35.384201 21.21596 38.584198 21.01594 41.1842 22.21594C 43.784199 23.415939 45.384201 25.21596 45.9842 27.41596L 38.9842 27.41596C 37.384201 27.41596 35.9842 28.81596 35.9842 30.416C 35.9842 32.015999 37.384201 33.416 38.9842 33.416L 46.1842 33.416Z"></path></g></g></g><g id="g-root-tx_establis_zpo457qy8gej-stroke" data-item-order="0" transform="translate(38.5, 488.3070068359375)"></g><g id="g-root-tx_applymin_mcynlnqy8ftb-stroke" data-item-order="0" transform="translate(782.5, 482.3070068359375)"></g><g id="g-root-flut_4ik06zqymh3f-stroke" data-item-order="0" transform="translate(482.5, 674.5)"><g id="flut_4ik06zqymh3f-stroke" fill="none" stroke-linecap="butt" stroke-linejoin="miter" stroke-miterlimit="4" stroke="#ffffff" stroke-width="1"><g><path d="M 12 43L 56 43L 56 49L 12 49ZM 54 49L 54 55C 54 56.104568 53.104568 57 52 57L 48 57C 46.895432 57 46 56.104568 46 55L 46 49M 46 43L 46 13C 46 11.895431 46.895432 11 48 11L 52 11C 53.104568 11 54 11.895431 54 13L 54 43M 46 49L 46 55C 46 56.104568 45.104568 57 44 57L 40 57C 38.895432 57 38 56.104568 38 55L 38 49M 38 43L 38 19C 38 17.895432 38.895432 17 40 17L 44 17C 45.104568 17 46 17.895432 46 19L 46 43M 38 49L 38 55C 38 56.104568 37.104568 57 36 57L 32 57C 30.89543 57 30 56.104568 30 55L 30 49M 30 43L 30 25C 30 23.895432 30.89543 23 32 23L 36 23C 37.104568 23 38 23.895432 38 25L 38 43M 30 49L 30 55C 30 56.104568 29.10457 57 28 57L 24 57C 22.895432 57 22 56.104568 22 55L 22 49M 22 43L 22 31C 22 29.89543 22.895432 29 24 29L 28 29C 29.10457 29 30 29.89543 30 31L 30 43M 22 49L 22 55C 22 56.104568 21.104568 57 20 57L 16 57C 14.895431 57 14 56.104568 14 55L 14 49M 14 43L 14 37C 14 35.895432 14.895431 35 16 35L 20 35C 21.104568 35 22 35.895432 22 37L 22 43"></path></g></g></g><g id="g-root-tx_measurer_dhy4fvqy8e80-stroke" data-item-order="0" transform="translate(410.5, 806.3070068359375)"></g><g id="g-root-tx_evaluate_4mb46zqy8f0p-stroke" data-item-order="0" transform="translate(410.5, 842.3070068359375)"></g></g></g></svg>