<svg width="113" height="113" viewBox="0 0 113 113" fill="none" xmlns="http://www.w3.org/2000/svg">
<path d="M110.531 84.1111L108.198 82.75C108.256 81.9917 108.295 81.2334 108.295 80.4945C108.295 79.7556 108.256 78.9973 108.198 78.2389L110.512 76.8778C112.417 75.7695 113.059 73.3389 111.97 71.4334L104.037 57.5695C103.512 56.6361 102.637 55.975 101.606 55.6834C100.595 55.4111 99.4869 55.5473 98.5536 56.0917L96.2591 57.4334C95.0536 56.5973 93.7702 55.8584 92.4286 55.2167V52.4945C92.4286 50.2778 90.6397 48.4889 88.423 48.4889H72.5563C70.3397 48.4889 68.5508 50.2778 68.5508 52.4945V55.2167C67.2091 55.8584 65.9452 56.5973 64.7202 57.4334L62.4258 56.0917C61.5119 55.5473 60.4036 55.4111 59.373 55.6834C58.3424 55.9556 57.4674 56.6361 56.9424 57.5695L49.0091 71.4334C47.9202 73.3389 48.5619 75.7695 50.4675 76.8778L52.7814 78.2389C52.723 78.9973 52.6842 79.7556 52.6842 80.4945C52.6842 81.2334 52.723 81.9917 52.7814 82.75L50.4675 84.1111C48.5619 85.2195 47.9202 87.65 49.0091 89.5556L56.9424 103.419C57.4674 104.353 58.3424 105.014 59.373 105.286C60.4036 105.578 61.5119 105.422 62.4258 104.878L64.7202 103.536C65.9258 104.372 67.2091 105.111 68.5508 105.753V108.494C68.5508 110.692 70.3397 112.5 72.5563 112.5H88.423C90.6397 112.5 92.4286 110.711 92.4286 108.494V105.753C93.7702 105.111 95.0341 104.372 96.2591 103.536L98.5536 104.878C99.4675 105.422 100.576 105.558 101.606 105.286C102.637 105.014 103.512 104.333 104.037 103.419L111.97 89.5556C113.059 87.65 112.417 85.2195 110.512 84.1111M80.7425 88.4861C76.3286 88.4861 72.7508 84.8889 72.7508 80.4945C72.7508 76.1 76.348 72.5028 80.7425 72.5028C85.1369 72.5028 88.7341 76.1 88.7341 80.4945C88.7341 84.8889 85.1369 88.4861 80.7425 88.4861Z" fill="#FAAF40"/>
<path d="M48.7218 80.4945L48.4885 80.3389C44.6968 78.1417 43.394 73.2611 45.5718 69.45L53.5051 55.6056C54.5551 53.7583 56.344 52.3972 58.3857 51.8528C59.0468 51.6778 59.7468 51.5806 60.4468 51.5806C61.8662 51.5806 63.2662 51.95 64.4718 52.6695L64.569 52.7278V52.4945C64.569 48.0806 68.1662 44.5028 72.5606 44.5028H76.9746C77.1301 43.1611 77.2468 41.8195 77.2468 40.4972C77.2468 38.3389 77.0329 36.1417 76.6246 33.9639L78.4718 32.9139C79.4051 32.3889 80.0857 31.4944 80.3773 30.4639C80.6496 29.4333 80.5135 28.325 79.969 27.3917L71.7829 13.5278C70.6745 11.6611 68.2634 11.0194 66.3773 12.0889L64.4329 13.1778C60.9912 10.2806 57.0051 8.04445 52.7079 6.56667V4.50556C52.7079 2.28889 50.919 0.5 48.7023 0.5H32.3301C30.1135 0.5 28.3245 2.28889 28.3245 4.50556V6.56667C24.0273 8.04445 20.0412 10.3 16.5995 13.1778L14.6551 12.0889C12.7495 11.0389 10.3579 11.6611 9.24952 13.5278L1.06342 27.3917C0.518979 28.325 0.363421 29.4139 0.635643 30.4639C0.907865 31.5139 1.58844 32.3889 2.54122 32.9139L4.38841 33.9639C3.96063 36.1417 3.74677 38.3389 3.74677 40.4972C3.74677 42.6556 3.96063 44.8528 4.38841 47.05L2.54122 48.1C1.60789 48.625 0.92731 49.5195 0.635643 50.55C0.363421 51.5806 0.499534 52.6889 1.06342 53.6222L9.24952 67.4861C10.3579 69.3528 12.7495 69.9945 14.6551 68.9445L16.5995 67.8556C20.0412 70.7528 24.0273 72.9889 28.3245 74.4667V76.5278C28.3245 78.7445 30.1135 80.5333 32.3301 80.5333H48.7023C48.7023 80.5333 48.7023 80.5333 48.7218 80.5333M28.519 40.5361C28.519 33.925 33.9051 28.5389 40.5162 28.5389C47.1273 28.5389 52.5134 33.925 52.5134 40.5361C52.5134 47.1472 47.1273 52.5333 40.5162 52.5333C33.9051 52.5333 28.519 47.1472 28.519 40.5361Z" fill="#FAAF40"/>
</svg>
