<svg width="111" height="113" viewBox="0 0 111 113" fill="none" xmlns="http://www.w3.org/2000/svg">
<path d="M50.7827 8.10516H45.3916V42.8585H50.7827V8.10516Z" fill="#FAAF40"/>
<path d="M0.0473633 112.5H8.73078L18.1652 91.1089H92.8127L102.266 112.5H110.95V69.2557H0.0473633V112.5Z" fill="#FAAF40"/>
<path d="M110.953 19.1186H98.1682V65.6746H110.953V19.1186Z" fill="#FAAF40"/>
<path d="M110.952 8.10516H81.6287V36.0233H94.6058V15.5372H110.952V8.10516Z" fill="#FAAF40"/>
<path d="M9.13232 32.0957H30.042V11.1859H9.13232V32.0957ZM13.1372 17.0199H24.7279V20.6011H13.1372V17.0199ZM13.1372 23.8357H19.5872V27.417H13.1372V23.8357Z" fill="#FAAF40"/>
<path d="M0.0473633 65.6745H41.8091V0.5H0.0473633V65.6745ZM5.57323 7.62394H33.6262V35.6769H5.57323V7.62394Z" fill="#FAAF40"/>
<path d="M78.0467 28.3991V14.0934H67.1298V18.9839H58.427V23.5086H67.1298V28.3991H78.0467Z" fill="#FAAF40"/>
</svg>
