<!DOCTYPE svg PUBLIC "-//W3C//DTD SVG 1.1//EN" "http://www.w3.org/Graphics/SVG/1.1/DTD/svg11.dtd">
<!-- Uploaded to: SVG Repo, www.svgrepo.com, Transformed by: SVG Repo Mixer Tools -->
<svg width="800px" height="800px" viewBox="0 0 32 32" xmlns="http://www.w3.org/2000/svg" xmlns:xlink="http://www.w3.org/1999/xlink" fill="#000000">
<g id="SVGRepo_bgCarrier" stroke-width="0"/>
<g id="SVGRepo_tracerCarrier" stroke-linecap="round" stroke-linejoin="round"/>
<g id="SVGRepo_iconCarrier"> <defs> <clipPath id="clip-brochure"> <rect width="32" height="32"/> </clipPath> </defs> <g id="brochure" clip-path="url(#clip-brochure)"> <g id="Group_2857" data-name="Group 2857" transform="translate(-468 -156)"> <g id="Group_2811" data-name="Group 2811"> <g id="Group_2810" data-name="Group 2810"> <g id="Group_2809" data-name="Group 2809"> <path id="Path_3925" data-name="Path 3925" d="M499.123,158.55a1,1,0,0,0-.914-.122L488.85,161.8l-9.36-3.377a.991.991,0,0,0-.679,0l-9.7,3.5a1,1,0,0,0-.66.941v21.762a1,1,0,0,0,1.34.941l9.359-3.377,9.36,3.377a.991.991,0,0,0,.679,0l9.7-3.5a1,1,0,0,0,.66-.941V159.369A1,1,0,0,0,499.123,158.55Zm-19.473,2.063,8.7,3.138v19.636l-8.7-3.138Zm-9.2,2.958,8.2-2.958v19.636l-8.2,2.959Zm27.1,16.858-8.2,2.958V163.751l8.2-2.959Z" fill="#7a79c5"/> </g> </g> </g> <g id="Group_2814" data-name="Group 2814"> <g id="Group_2813" data-name="Group 2813"> <g id="Group_2812" data-name="Group 2812"> <path id="Path_3926" data-name="Path 3926" d="M480.762,163.982,486.9,166.2a.537.537,0,0,0,.17.029.5.5,0,0,0,.17-.971l-6.136-2.214a.5.5,0,1,0-.34.941Z" fill="#7a79c5"/> </g> </g> </g> <g id="Group_2817" data-name="Group 2817"> <g id="Group_2816" data-name="Group 2816"> <g id="Group_2815" data-name="Group 2815"> <path id="Path_3927" data-name="Path 3927" d="M487.238,167.977l-6.136-2.214a.506.506,0,0,0-.641.3.5.5,0,0,0,.3.641l6.136,2.213a.512.512,0,0,0,.17.03.5.5,0,0,0,.17-.971Z" fill="#7a79c5"/> </g> </g> </g> <g id="Group_2820" data-name="Group 2820"> <g id="Group_2819" data-name="Group 2819"> <g id="Group_2818" data-name="Group 2818"> <path id="Path_3928" data-name="Path 3928" d="M480.762,169.426l4.329,1.563a.528.528,0,0,0,.17.029.5.5,0,0,0,.17-.971l-4.329-1.562a.505.505,0,0,0-.641.3A.5.5,0,0,0,480.762,169.426Z" fill="#7a79c5"/> </g> </g> </g> <g id="Group_2823" data-name="Group 2823"> <g id="Group_2822" data-name="Group 2822"> <g id="Group_2821" data-name="Group 2821"> <path id="Path_3929" data-name="Path 3929" d="M487.238,173.421l-6.136-2.214a.5.5,0,1,0-.34.941l6.136,2.215a.537.537,0,0,0,.17.029.5.5,0,0,0,.17-.971Z" fill="#7a79c5"/> </g> </g> </g> <g id="Group_2826" data-name="Group 2826"> <g id="Group_2825" data-name="Group 2825"> <g id="Group_2824" data-name="Group 2824"> <path id="Path_3930" data-name="Path 3930" d="M487.238,176.143l-6.136-2.214a.5.5,0,0,0-.34.942l6.136,2.213a.512.512,0,0,0,.17.03.5.5,0,0,0,.17-.971Z" fill="#7a79c5"/> </g> </g> </g> <g id="Group_2829" data-name="Group 2829"> <g id="Group_2828" data-name="Group 2828"> <g id="Group_2827" data-name="Group 2827"> <path id="Path_3931" data-name="Path 3931" d="M484.17,177.758l-3.068-1.107a.5.5,0,1,0-.34.941l3.068,1.108a.533.533,0,0,0,.17.029.5.5,0,0,0,.17-.971Z" fill="#7a79c5"/> </g> </g> </g> <g id="Group_2832" data-name="Group 2832"> <g id="Group_2831" data-name="Group 2831"> <g id="Group_2830" data-name="Group 2830"> <path id="Path_3932" data-name="Path 3932" d="M477.869,163.511a2.019,2.019,0,0,1-.029-.17l-.008-.012a.451.451,0,0,0-.059-.1.505.505,0,0,0-.044-.066.526.526,0,0,0-.1-.071.6.6,0,0,0-.056-.037.517.517,0,0,0-.111-.029.55.55,0,0,0-.079-.015.1.1,0,0,0-.017,0,.46.46,0,0,0-.091.019.417.417,0,0,0-.079.011l-5.72,2.064a.5.5,0,0,0-.331.471v5.444a.5.5,0,0,0,.5.5.519.519,0,0,0,.17-.029l5.721-2.065.012-.007a.55.55,0,0,0,.09-.054.484.484,0,0,0,.074-.051.468.468,0,0,0,.053-.071.487.487,0,0,0,.057-.085.573.573,0,0,0,.018-.074.459.459,0,0,0,.024-.117l0-.011Zm-5.721,2.416,4.721-1.7v4.38l-4.721,1.7Z" fill="#7a79c5"/> </g> </g> </g> <g id="Group_2835" data-name="Group 2835"> <g id="Group_2834" data-name="Group 2834"> <g id="Group_2833" data-name="Group 2833"> <path id="Path_3933" data-name="Path 3933" d="M477.2,171.282l-5.72,2.064a.5.5,0,0,0,.169.971.528.528,0,0,0,.17-.029l5.721-2.065a.5.5,0,1,0-.34-.941Z" fill="#7a79c5"/> </g> </g> </g> <g id="Group_2838" data-name="Group 2838"> <g id="Group_2837" data-name="Group 2837"> <g id="Group_2836" data-name="Group 2836"> <path id="Path_3934" data-name="Path 3934" d="M475.192,174.729l-3.713,1.34a.5.5,0,1,0,.339.941l3.714-1.34a.5.5,0,0,0,.3-.64A.505.505,0,0,0,475.192,174.729Z" fill="#7a79c5"/> </g> </g> </g> <g id="Group_2841" data-name="Group 2841"> <g id="Group_2840" data-name="Group 2840"> <g id="Group_2839" data-name="Group 2839"> <path id="Path_3935" data-name="Path 3935" d="M490.614,165.694a.528.528,0,0,0,.17-.029l5.721-2.065a.5.5,0,1,0-.34-.941l-5.721,2.064a.5.5,0,0,0,.17.971Z" fill="#7a79c5"/> </g> </g> </g> <g id="Group_2844" data-name="Group 2844"> <g id="Group_2843" data-name="Group 2843"> <g id="Group_2842" data-name="Group 2842"> <path id="Path_3936" data-name="Path 3936" d="M490.614,168.268a.528.528,0,0,0,.17-.029l3.714-1.34a.5.5,0,1,0-.34-.941l-3.714,1.339a.5.5,0,0,0,.17.971Z" fill="#7a79c5"/> </g> </g> </g> <g id="Group_2847" data-name="Group 2847"> <g id="Group_2846" data-name="Group 2846"> <g id="Group_2845" data-name="Group 2845"> <path id="Path_3937" data-name="Path 3937" d="M490.614,171.567a.528.528,0,0,0,.17-.029l5.721-2.065a.5.5,0,1,0-.34-.941l-5.721,2.064a.5.5,0,0,0,.17.971Z" fill="#7a79c5"/> </g> </g> </g> <g id="Group_2850" data-name="Group 2850"> <g id="Group_2849" data-name="Group 2849"> <g id="Group_2848" data-name="Group 2848"> <path id="Path_3938" data-name="Path 3938" d="M490.614,174.141a.528.528,0,0,0,.17-.029l3.714-1.34a.5.5,0,1,0-.34-.941l-3.714,1.339a.5.5,0,0,0,.17.971Z" fill="#7a79c5"/> </g> </g> </g> <g id="Group_2853" data-name="Group 2853"> <g id="Group_2852" data-name="Group 2852"> <g id="Group_2851" data-name="Group 2851"> <path id="Path_3939" data-name="Path 3939" d="M490.614,177.441a.528.528,0,0,0,.17-.029l5.721-2.065a.5.5,0,1,0-.34-.941l-5.721,2.064a.5.5,0,0,0,.17.971Z" fill="#7a79c5"/> </g> </g> </g> <g id="Group_2856" data-name="Group 2856"> <g id="Group_2855" data-name="Group 2855"> <g id="Group_2854" data-name="Group 2854"> <path id="Path_3940" data-name="Path 3940" d="M494.158,177.705l-3.714,1.339a.5.5,0,0,0,.17.971.528.528,0,0,0,.17-.029l3.714-1.34a.5.5,0,1,0-.34-.941Z" fill="#7a79c5"/> </g> </g> </g> </g> </g> </g>
</svg>