<svg width="113" height="113" viewBox="0 0 113 113" fill="none" xmlns="http://www.w3.org/2000/svg">
<path d="M103.077 33.2896V40.6325H66.3232V31.1999H55.0353V0.5H52.0083V31.1999H48.8055V28.0752C48.8055 20.2635 42.4389 13.897 34.6273 13.897H22.109V16.9241H34.6273C40.779 16.9241 45.7784 21.9235 45.7784 28.0752V31.1999H41.0328V40.7302H9.92282V33.2896H0.255859V55.6895H9.92282V51.3931H41.0524V60.9234H47.8095V68.9499H45.3488V85.2177H50.1139V89.1235L52.3988 93.42H52.8285V112.5H54.215V93.42H54.6447L56.9296 89.1235V85.2177H61.6947V68.9499H59.5661V60.9234H66.3232V51.2954H103.077V55.6895H112.744V33.2896H103.077ZM57.1054 83.1671H54.0783V60.9234H57.1054V83.1671ZM61.89 54.9474H58.863V40.9645H61.89V54.9474Z" fill="#FAAF40"/>
<path d="M13.9641 108.204H50.0345V98.9468H13.9641V108.204ZM16.9911 101.954H47.0271V105.177H16.9911V101.954Z" fill="#FAAF40"/>
<path d="M56.99 108.204H93.0604V98.9468H56.99V108.204ZM60.017 101.954H90.0529V105.177H60.017V101.954Z" fill="#FAAF40"/>
</svg>
