<svg width="133" height="113" viewBox="0 0 133 113" fill="none" xmlns="http://www.w3.org/2000/svg">
<path d="M62.765 4.83274C60.1449 2.68545 56.9929 1.26705 53.6242 0.735156C50.2753 0.203258 46.8278 0.577557 43.6758 1.81865L59.022 10.5654L62.765 4.83274Z" fill="#FAAF40"/>
<path d="M43.6943 37.3575C43.6352 35.289 44.2065 33.2402 45.3491 31.5066L52.973 19.8245L34.5535 9.32446C31.4804 14.1312 30.7318 20.0806 32.5048 25.4981C34.2777 30.9353 38.3753 35.2693 43.6943 37.3575Z" fill="#FAAF40"/>
<path d="M56.7367 48.9408C57.1504 49.0984 57.6429 48.9408 57.8793 48.5665L70.2312 29.6743L62.4103 25.2221C61.9375 24.9463 61.6026 24.5129 61.4647 24.0007C61.3268 23.4885 61.3859 22.9369 61.6617 22.4641L65.1289 16.3768C65.6805 15.4115 66.9216 15.0766 67.8869 15.6282L76.2988 20.4153L80.4554 14.0522C80.4554 14.0522 80.4554 13.9932 80.4554 13.9735C80.4554 13.9538 80.416 13.9341 80.3766 13.9341L66.0154 4.55689C66.0154 4.55689 65.976 4.55689 65.9563 4.55689C65.9366 4.55689 65.9169 4.55688 65.8972 4.59628L59.7705 13.9735L36.8989 0.932098L33.9636 6.07378C33.9636 6.07378 33.9636 6.13288 33.9636 6.15258C33.9636 6.17228 34.003 6.19198 34.0424 6.19198L56.52 19.0166L47.4187 32.9445C46.6504 34.1265 46.217 35.5055 46.1776 36.9239C46.1382 38.3423 46.4928 39.741 47.202 40.9623C49.3296 44.6659 52.6982 47.5224 56.717 49.0196L56.7367 48.9408Z" fill="#FAAF40"/>
<path d="M64.1035 23.2522L71.6289 27.5468L74.8991 22.5233L67.0782 18.0514L64.1035 23.2522Z" fill="#FAAF40"/>
<path d="M112.505 62.79V62.8294C112.505 63.4992 111.973 64.0508 111.303 64.0705L98.1236 64.2281H98.0842C98.0842 64.2281 98.0448 64.2281 98.0251 64.2281L82.994 81.0715C83.5062 81.8989 83.7426 82.8642 83.6638 83.8295C83.585 84.7751 83.191 85.701 82.5409 86.4102L71.5484 98.7423C73.5184 100.24 74.5428 102.682 74.2473 105.145C73.9321 107.607 72.3561 109.715 70.0906 110.7C69.1844 111.094 68.2388 111.291 67.2932 111.291C65.8354 111.291 64.3973 110.838 63.1759 109.952L62.1909 109.223L60.4967 111.134C59.4132 112.256 57.8175 112.729 56.3006 112.394C54.7641 112.06 53.5427 110.956 53.0305 109.479C52.5183 108.001 52.8138 106.366 53.8185 105.165L54.9611 103.884L36.0885 89.9562C34.3943 88.7151 33.2911 86.8239 33.035 84.7357L28.7996 50.8321C28.7208 50.1229 28.0904 49.6304 27.4009 49.7289C26.6917 49.8077 26.1992 50.4381 26.2977 51.1473L30.5331 85.0509C30.8877 87.8286 32.3455 90.3305 34.5913 92.005L44.9535 99.6485L42.9835 109.459H0.372559L12.7244 46.5573C13.5124 42.5976 15.8567 39.1107 19.2254 36.8649C22.5941 34.6191 26.7114 33.8114 30.6907 34.6191H30.7892C37.7236 36.0178 43.8306 40.1351 47.7509 46.0254C51.6909 51.9156 53.1093 59.1455 51.7106 66.0799L49.1102 79.0227L47.9085 78.1362H47.8494C47.8297 78.1362 47.81 78.0968 47.81 78.0771L47.5539 52.0535C47.5342 51.3443 46.9629 50.7927 46.2734 50.8124C45.5839 50.8124 45.0323 51.3837 45.0323 52.0732L45.2884 78.1165C45.3081 78.9242 45.6824 79.6925 46.3522 80.185L64.2594 93.4037L75.8036 80.4608H75.9021C76.5522 79.7516 77.3993 79.2591 78.3449 79.0818C79.3102 78.8848 80.2952 79.003 81.1619 79.4167L96.1733 62.5733C96.6658 62.0414 97.3553 61.7262 98.0842 61.7065L111.263 61.5489C111.953 61.5489 112.505 62.1202 112.505 62.79Z" fill="#FAAF40"/>
<path d="M113.372 59.5395C113.372 59.5395 113.274 59.5198 113.235 59.5001C112.9 59.3622 112.762 58.9682 112.9 58.6333L120.248 42.3218C120.386 41.9869 120.78 41.849 121.115 41.9869C121.449 42.1445 121.587 42.5188 121.449 42.8537L114.101 59.1652C113.983 59.441 113.668 59.5986 113.372 59.5395Z" fill="#FAAF40"/>
<path d="M102.437 83.7901C102.437 83.7901 102.339 83.7704 102.3 83.7507C101.965 83.5931 101.827 83.2188 101.965 82.8839L109.313 66.5724C109.451 66.2375 109.845 66.0996 110.18 66.2375C110.514 66.3951 110.652 66.7694 110.514 67.1043L103.166 83.4158C103.048 83.6916 102.733 83.8492 102.437 83.7901Z" fill="#FAAF40"/>
<path d="M105.613 60.82C105.613 60.82 105.514 60.8003 105.475 60.7806L91.1726 54.3387C90.8377 54.2008 90.6998 53.8068 90.8377 53.4719C90.9756 53.137 91.3696 52.9991 91.7045 53.137L106.007 59.5789C106.342 59.7168 106.479 60.1108 106.342 60.4457C106.204 60.7215 105.908 60.8791 105.613 60.82Z" fill="#FAAF40"/>
<path d="M131.846 72.6399C131.846 72.6399 131.747 72.6202 131.708 72.6005L115.396 65.2524C115.061 65.1145 114.923 64.7205 115.061 64.3856C115.199 64.0507 115.593 63.9128 115.928 64.0507L132.24 71.3988C132.575 71.5367 132.712 71.9307 132.575 72.2656C132.456 72.5414 132.141 72.699 131.846 72.6399Z" fill="#FAAF40"/>
<path d="M115.657 61.9824C115.441 61.943 115.263 61.7854 115.165 61.5687C115.047 61.2338 115.204 60.8595 115.539 60.7216L125.763 56.8998C126.098 56.7816 126.473 56.9392 126.61 57.2741C126.729 57.609 126.571 57.9833 126.236 58.1212L116.012 61.943C115.894 61.9824 115.775 62.0021 115.657 61.9627" fill="#FAAF40"/>
<path d="M97.2559 68.8572C97.0392 68.8178 96.8619 68.6602 96.7634 68.4435C96.6452 68.1086 96.8028 67.7343 97.1377 67.5964L104.959 64.6612C105.293 64.543 105.668 64.7006 105.806 65.0354C105.924 65.3703 105.766 65.7446 105.431 65.8825L97.6105 68.8178C97.4923 68.8572 97.3741 68.8769 97.2559 68.8375" fill="#FAAF40"/>
<path d="M110.059 59.4213C109.842 59.3819 109.665 59.2243 109.566 59.0076L105.745 48.7833C105.626 48.4484 105.784 48.0741 106.119 47.9362C106.454 47.818 106.828 47.9756 106.966 48.3105L110.788 58.5348C110.906 58.8697 110.748 59.244 110.413 59.3819C110.295 59.4213 110.177 59.441 110.059 59.4016" fill="#FAAF40"/>
<path d="M116.939 77.8211C116.723 77.7817 116.545 77.6242 116.447 77.4075L112.625 67.1832C112.507 66.8483 112.665 66.474 113 66.3558C113.334 66.2376 113.709 66.3952 113.847 66.7301L117.668 76.9543C117.787 77.2892 117.629 77.6635 117.294 77.7817C117.176 77.8211 117.058 77.8408 116.939 77.8014" fill="#FAAF40"/>
</svg>
