<?xml version="1.0" encoding="utf-8" standalone="yes"?>
<!DOCTYPE svg PUBLIC "-//W3C//DTD SVG 1.1//EN" "http://www.w3.org/Graphics/SVG/1.1/DTD/svg11.dtd">
<svg width="458" height="646" viewBox="0 0 458 646" style="fill:none;stroke:none;fill-rule:evenodd;clip-rule:evenodd;stroke-linecap:round;stroke-linejoin:round;stroke-miterlimit:1.5;" version="1.1" xmlns="http://www.w3.org/2000/svg" xmlns:xlink="http://www.w3.org/1999/xlink"><style class="text-font-style fontImports" data-font-family="Roboto">@import url('https://fonts.googleapis.com/css2?family=Roboto:wght@400;700&amp;display=block');</style><style class="text-font-style fontImports" data-font-family="Space Grotesk">@font-face {font-family: 'Space Grotesk Regular';src: url(https://fonts.napkin.ai/google-fonts/20250207/space-grotesk/space-grotesk_regular.ttf) format("truetype");font-weight: normal;font-style: normal;}</style><g id="items" style="isolation: isolate"><g id="blend" style="mix-blend-mode: normal"><g id="g-root-1.bubble-1_fr_1hf3kyqkkklja-fill" data-item-order="-228470" transform="translate(39, 123)"></g><g id="g-root-3.bubble-3_fr_zog1k2kkkkqo-fill" data-item-order="-228442" transform="translate(231, 123)"></g><g id="g-root-2.bubble-2_fr_mdm09ukkkj5u-fill" data-item-order="-228412" transform="translate(135, 360)"></g><g id="g-root-tx_kaizenpr_925hwikkkkqs-fill" data-item-order="0" transform="translate(111, 39)"><g id="tx_kaizenpr_925hwikkkkqs-fill" stroke="none" fill="#484848"><g><text style="font: bold 25px &quot;Space Grotesk Regular&quot;, sans-serif; white-space: pre;" font-weight="bold" font-size="25px" font-family="'Space Grotesk Regular', sans-serif"><tspan x="16.98" y="44" dominant-baseline="ideographic">Kaizen Principles</tspan></text></g></g></g><g id="g-root-tx_allround_vai1uqkkx890-fill" data-item-order="0" transform="translate(249, 135)"><g id="tx_allround_vai1uqkkx890-fill" stroke="none" fill="#000000"><g><text style="font: bold 20px &quot;Space Grotesk Regular&quot;, sans-serif; white-space: pre;" font-weight="bold" font-size="20px" font-family="'Space Grotesk Regular', sans-serif"><tspan x="31.05" y="35" dominant-baseline="ideographic">All Round </tspan><tspan x="12.73" y="59" dominant-baseline="ideographic">Improvement</tspan></text></g></g></g><g id="g-root-tx_smallste_1usfilekkkiyt-fill" data-item-order="0" transform="translate(63, 171)"><g id="tx_smallste_1usfilekkkiyt-fill" stroke="none" fill="#000000"><g><text style="font: bold 20px &quot;Space Grotesk Regular&quot;, sans-serif; white-space: pre;" font-weight="bold" font-size="20px" font-family="'Space Grotesk Regular', sans-serif"><tspan x="13.88" y="35" dominant-baseline="ideographic">Small Steps</tspan></text></g></g></g><g id="g-root-tx_focusonm_1hgz082kkkkjq-fill" data-item-order="0" transform="translate(57, 207)"><g id="tx_focusonm_1hgz082kkkkjq-fill" stroke="none" fill="#000000"><g><text style="font: 15px Roboto, sans-serif; white-space: pre;" font-size="15px" font-family="Roboto, sans-serif"><tspan x="17.07" y="31" dominant-baseline="ideographic">Focus on making </tspan><tspan x="13.23" y="49" dominant-baseline="ideographic">small, incremental </tspan><tspan x="24.26" y="67" dominant-baseline="ideographic">improvements.</tspan></text></g></g></g><g id="g-root-tx_aimsforc_9410bmkkx7gt-fill" data-item-order="0" transform="translate(243, 195)"><g id="tx_aimsforc_9410bmkkx7gt-fill" stroke="none" fill="#000000"><g><text style="font: 15px Roboto, sans-serif; white-space: pre;" font-size="15px" font-family="Roboto, sans-serif"><tspan x="51.68" y="28" dominant-baseline="ideographic">Aims for </tspan><tspan x="29.18" y="46" dominant-baseline="ideographic">comprehensive </tspan><tspan x="17.2" y="64" dominant-baseline="ideographic">enhancement in all </tspan><tspan x="59.66" y="82" dominant-baseline="ideographic">areas.</tspan></text></g></g></g><g id="g-root-foot_18lbzz6kkklcf-fill" data-item-order="0" transform="translate(93, 279)"></g><g id="g-root-reop_1qehiw2kkx6h3-fill" data-item-order="0" transform="translate(285, 279)"></g><g id="g-root-up_1lz96g2kuve2o-fill" data-item-order="0" transform="translate(189, 395)"></g><g id="g-root-tx_rapidste_hu0lpekusl55-fill" data-item-order="0" transform="translate(159, 467)"><g id="tx_rapidste_hu0lpekusl55-fill" stroke="none" fill="#000000"><g><text style="font: bold 20px &quot;Space Grotesk Regular&quot;, sans-serif; white-space: pre;" font-weight="bold" font-size="20px" font-family="'Space Grotesk Regular', sans-serif"><tspan x="11.87" y="35" dominant-baseline="ideographic">Rapid Steps</tspan></text></g></g></g><g id="g-root-tx_emphasiz_4j6kf6kusjka-fill" data-item-order="0" transform="translate(153, 503)"><g id="tx_emphasiz_4j6kf6kusjka-fill" stroke="none" fill="#000000"><g><text style="font: 15px Roboto, sans-serif; white-space: pre;" font-size="15px" font-family="Roboto, sans-serif"><tspan x="12.38" y="31" dominant-baseline="ideographic">Emphasizes quick, </tspan><tspan x="37.17" y="49" dominant-baseline="ideographic">successive </tspan><tspan x="24.27" y="67" dominant-baseline="ideographic">improvements.</tspan></text></g></g></g><g id="g-root-1.bubble-1_fr_1hf3kyqkkklja-stroke" data-item-order="-228470" transform="translate(39, 123)"><g id="1.bubble-1_fr_1hf3kyqkkklja-stroke" fill="none" stroke-linecap="round" stroke-linejoin="round" stroke-miterlimit="4" stroke="#4e88e7" stroke-width="2"><g><path d="M 178 22C 178 15.3726 172.6274 10 166 10L 22 10C 15.3726 10 10 15.3726 10 22M 178 213.99968L 178 22M 10 213.99968L 10 22M 178 214L 178 218.0872C 178 222.8876 175.1392 227.226 170.727 229.117L 98.727 259.9741C 95.7085 261.2678 92.2916 261.2678 89.273 259.9741L 17.273 229.117C 12.8608 227.226 10 222.8876 10 218.0872L 10 214"></path></g></g></g><g id="g-root-3.bubble-3_fr_zog1k2kkkkqo-stroke" data-item-order="-228442" transform="translate(231, 123)"><g id="3.bubble-3_fr_zog1k2kkkkqo-stroke" fill="none" stroke-linecap="round" stroke-linejoin="round" stroke-miterlimit="4" stroke="#4e88e7" stroke-width="2"><g><path d="M 178 22C 178 15.3726 172.6274 10 166 10L 22 10C 15.3726 10 10 15.3726 10 22M 178 213.99968L 178 22M 10 213.99968L 10 22M 178 214L 178 218.0872C 178 222.8876 175.1392 227.226 170.727 229.117L 98.727 259.9741C 95.7085 261.2678 92.2916 261.2678 89.273 259.9741L 17.273 229.117C 12.8608 227.226 10 222.8876 10 218.0872L 10 214"></path></g></g></g><g id="g-root-2.bubble-2_fr_mdm09ukkkj5u-stroke" data-item-order="-228412" transform="translate(135, 360)"><g id="2.bubble-2_fr_mdm09ukkkj5u-stroke" fill="none" stroke-linecap="round" stroke-linejoin="round" stroke-miterlimit="4" stroke="#4e88e7" stroke-width="2"><g><path d="M 10.000001 212.999969C 10.000001 219.627369 15.372601 224.999969 22.000001 224.999969L 166.000001 224.999969C 172.627401 224.999969 178.000001 219.627369 178.000001 212.999969M 177.999985 212.999741L 177.999985 57M 10 212.999741L 10 57M 10 56.944404L 10 52.857104C 10 48.056804 12.8608 43.718304 17.273 41.827404L 89.273 10.970304C 92.2915 9.676604 95.7085 9.676604 98.727 10.970304L 170.727 41.827404C 175.1392 43.718304 178 48.056804 178 52.857104L 178 56.944404"></path></g></g></g><g id="g-root-tx_kaizenpr_925hwikkkkqs-stroke" data-item-order="0" transform="translate(111, 39)"></g><g id="g-root-tx_allround_vai1uqkkx890-stroke" data-item-order="0" transform="translate(249, 135)"></g><g id="g-root-tx_smallste_1usfilekkkiyt-stroke" data-item-order="0" transform="translate(63, 171)"></g><g id="g-root-tx_focusonm_1hgz082kkkkjq-stroke" data-item-order="0" transform="translate(57, 207)"></g><g id="g-root-tx_aimsforc_9410bmkkx7gt-stroke" data-item-order="0" transform="translate(243, 195)"></g><g id="g-root-foot_18lbzz6kkklcf-stroke" data-item-order="0" transform="translate(93, 279)"><g id="foot_18lbzz6kkklcf-stroke" fill="none" stroke-linecap="round" stroke-linejoin="round" stroke-miterlimit="4" stroke="#000000" stroke-width="2"><g><path d="M 21.380001 47.122501C 20.698473 47.234795 20.237204 47.878555 20.35 48.559998L 21.165001 53.5C 21.728373 56.906857 24.947235 59.211685 28.35397 58.647579C 31.760704 58.083473 34.064842 54.864117 33.5 51.4575L 32.682499 46.524998C 32.567719 45.847786 31.928017 45.390057 31.25 45.5ZM 23.0825 11.3675C 18.3141 12.153635 15.085979 16.656664 15.8725 21.425001L 19.122499 41.16C 19.234833 41.840385 19.876942 42.30127 20.557501 42.190002L 30.457499 40.555C 31.112129 40.447372 31.568649 39.847092 31.497499 39.1875C 31.160606 36.503414 31.576958 33.778519 32.700001 31.317501C 33.91103 28.639324 34.301628 25.662439 33.822502 22.762501L 33.139999 18.577499C 32.353867 13.8091 27.850838 10.580978 23.0825 11.3675ZM 55.952499 57.75C 56.273277 57.835545 56.546856 58.045181 56.712879 58.332676C 56.878906 58.620178 56.923744 58.961906 56.837502 59.282497L 55.545002 64.112503C 54.65237 67.446915 51.22567 69.426376 47.891251 68.533752C 44.556831 67.641121 42.57737 64.214417 43.470001 60.880005L 44.762501 56.049999C 44.940697 55.383183 45.625629 54.986992 46.2925 55.165001ZM 57.75 22C 62.416969 23.249548 65.187988 28.045118 63.940002 32.712502L 58.775002 52.040001C 58.595695 52.705807 57.91111 53.100677 57.245003 52.922501L 47.550003 50.330002C 46.910633 50.157246 46.516983 49.515785 46.6525 48.8675C 47.249371 46.22908 47.101364 43.476704 46.225002 40.917503C 45.282909 38.134022 45.184624 35.134171 45.942497 32.294998L 47.040001 28.195C 48.287365 23.527258 53.081913 20.753942 57.75 22Z"></path></g></g></g><g id="g-root-reop_1qehiw2kkx6h3-stroke" data-item-order="0" transform="translate(285, 279)"><g id="reop_1qehiw2kkx6h3-stroke" fill="none" stroke-linecap="round" stroke-linejoin="round" stroke-miterlimit="4" stroke="#000000" stroke-width="2"><g><path d="M 33.75 40C 33.75 43.451782 36.548222 46.25 40 46.25C 43.451782 46.25 46.25 43.451782 46.25 40C 46.25 36.548222 43.451782 33.75 40 33.75C 36.548222 33.75 33.75 36.548222 33.75 40M 56.767502 24.996651C 53.729248 21.601151 49.73175 19.208075 45.303749 18.13405C 40.875748 17.059999 36.226002 17.355625 31.969799 18.981775C 27.713501 20.607925 24.051226 23.487999 21.467449 27.240925C 18.883675 30.993851 17.500175 35.442749 17.5 39.999249L 17.5 41.881748M 23.232426 55.003502C 26.270525 58.399002 30.267849 60.792 34.695576 61.866001C 39.123249 62.94025 43.772751 62.644749 48.028999 61.019001C 52.285252 59.393002 55.947498 56.5135 58.531498 52.76075C 61.115498 49.008251 62.499252 44.55975 62.5 40.003502L 62.5 38.131001M 10 10M 56.875 43.748749L 62.5 38.123749L 68.125 43.748749M 23.125 36.248749L 17.5 41.873749L 11.875 36.248749"></path></g></g></g><g id="g-root-up_1lz96g2kuve2o-stroke" data-item-order="0" transform="translate(189, 395)"><g id="up_1lz96g2kuve2o-stroke" fill="none" stroke-linecap="round" stroke-linejoin="round" stroke-miterlimit="4" stroke="#000000" stroke-width="2"><g><path d="M 11.2 60.625L 16.299999 60.625M 21.200001 60.625L 26.299999 60.625M 31.199999 60.625L 36.300003 60.625M 41.172501 60.190002C 42.837326 59.83601 44.450294 59.271469 45.972504 58.510002M 50.044998 55.799999C 51.336514 54.69146 52.48156 53.422913 53.452499 52.024998M 55.73 47.690002C 56.279999 46.080002 56.702499 44.439999 57.1175 42.785M 58.347504 38.040001L 59.625 33.105M 60.852501 28.360001L 62.129997 23.422501M 54.152496 24.9475L 63.177498 19.375L 68.75 28.4"></path></g></g></g><g id="g-root-tx_rapidste_hu0lpekusl55-stroke" data-item-order="0" transform="translate(159, 467)"></g><g id="g-root-tx_emphasiz_4j6kf6kusjka-stroke" data-item-order="0" transform="translate(153, 503)"></g></g></g></svg>