<?xml version="1.0" encoding="utf-8" standalone="yes"?>
<!DOCTYPE svg PUBLIC "-//W3C//DTD SVG 1.1//EN" "http://www.w3.org/Graphics/SVG/1.1/DTD/svg11.dtd">
<svg width="1033" height="937" viewBox="0 0 1033 937" style="fill:none;stroke:none;fill-rule:evenodd;clip-rule:evenodd;stroke-linecap:round;stroke-linejoin:round;stroke-miterlimit:1.5;" version="1.1" xmlns="http://www.w3.org/2000/svg" xmlns:xlink="http://www.w3.org/1999/xlink"><style class="text-font-style fontImports" data-font-family="Montserrat">@import url('https://fonts.googleapis.com/css2?family=Montserrat:wght@400;700&amp;display=block');</style><style class="text-font-style fontImports" data-font-family="Space Grotesk">@font-face {font-family: 'Space Grotesk Regular';src: url(https://fonts.napkin.ai/google-fonts/20250207/space-grotesk/space-grotesk_regular.ttf) format("truetype");font-weight: normal;font-style: normal;}</style><g id="items" style="isolation: isolate"><g id="blend" style="mix-blend-mode: normal"><g id="g-root-5.g-5_fr_dilk81imugp4-fill" data-item-order="-826556" transform="translate(290.5, 122.5009765625)"><g id="5.g-5_fr_dilk81imugp4-fill" stroke="none" fill="#95bdff"><g><path d="M 10.000003 250L 10 289.429L 70 238L 130 289.429L 130 250C 130 205.268 160.595 167.681 202 157.024L 202 178L 274 94L 202 10L 202 35.3182C 94.0012 47.2569 10.000013 138.819 10.000003 250Z"></path></g></g></g><g id="g-root-4.g-4_fr_7rixtimuf4a-fill" data-item-order="-826552" transform="translate(266.5, 350.5)"><g id="4.g-4_fr_7rixtimuf4a-fill" stroke="none" fill="#4f92ff"><g><path d="M 34 82L 34 202C 34 232.283 40.232 261.111 51.4834 287.27L 76 217.646L 159.19 233.217C 155.826 223.43 154 212.928 154 202L 154 82L 178 82L 94 10L 10 82L 34 82Z"></path></g></g></g><g id="g-root-3.g-3_fr_1ut22shimufpg-fill" data-item-order="-826548" transform="translate(295.7539978027344, 558.14697265625)"><g id="3.g-3_fr_1ut22shimufpg-fill" stroke="none" fill="#4e88e7"><g><path d="M 22.2295 79.6238L 10 114.354L 32.9316 101.1143C 70.0995 166.36 140.285 210.354 220.746 210.354C 308.377 210.354 383.82 158.17 417.694 83.1818L 334.746 98.707L 310.249 29.1401C 296.316 64.9635 261.496 90.3535 220.746 90.3535C 184.698 90.3535 153.291 70.4849 136.877 41.1012L 155.492 30.3538L 129.936 25.5704L 46.7461 10L 22.2295 79.6238Z"></path></g></g></g><g id="g-root-2.g-2_fr_1hi81i9imue4m-fill" data-item-order="-826544" transform="translate(583.7540283203125, 371.071044921875)"><g id="2.g-2_fr_1hi81i9imue4m-fill" stroke="none" fill="#507fcc"><g><path d="M 88.7462 61.4286L 28.7462 10L 28.7462 181.429C 28.7462 184.975 28.5538 188.477 28.179 191.924L 10 181.428L 46.7462 285.782L 155.492 265.428L 136.158 254.266C 144.307 231.509 148.746 206.987 148.746 181.429L 148.746 10L 88.7462 61.4286Z"></path></g></g></g><g id="g-root-1.g-1_fr_146rj4ximufpk-fill" data-item-order="-826540" transform="translate(503.01800537109375, 146.5)"><g id="1.g-1_fr_146rj4ximufpk-fill" stroke="none" fill="#415c87"><g><path d="M 61.4816 70L 10 130.062C 11.1555 130.021 12.3161 130 13.4816 130C 62.4371 130 102.8338 166.644 108.7389 214L 85.4816 214L 169.482 286L 253.482 214L 229.154 214C 222.927 100.2881 128.748 10.00001 13.4816 10C 12.3442 10 11.2089 10.0089 10.0756 10.0264L 61.4816 70Z"></path></g></g></g><g id="g-root-tx_kaizency_mg3zq9imuewy-fill" data-item-order="0" transform="translate(410.5, 38.5)"><g id="tx_kaizency_mg3zq9imuewy-fill" stroke="none" fill="#000000"><g><text style="font: bold 30px &quot;Space Grotesk Regular&quot;, sans-serif; white-space: pre;" font-weight="bold" font-size="30px" font-family="'Space Grotesk Regular', sans-serif"><tspan x="14.75" y="47" dominant-baseline="ideographic">Kaizen Cycle</tspan></text></g></g></g><g id="g-root-tx_fosterte_zk1nz5iwk7ph-fill" data-item-order="0" transform="translate(38.5, 219.3070068359375)"><g id="tx_fosterte_zk1nz5iwk7ph-fill" stroke="none" fill="#000000"><g><text style="font: bold 20px &quot;Space Grotesk Regular&quot;, sans-serif; white-space: pre;" font-weight="bold" font-size="20px" font-family="'Space Grotesk Regular', sans-serif"><tspan x="83.5" y="35" dominant-baseline="ideographic">Foster Team </tspan><tspan x="75.73" y="59" dominant-baseline="ideographic">Participation</tspan></text></g></g></g><g id="g-root-tx_identify_qu0xi9iwircw-fill" data-item-order="0" transform="translate(782.5, 218.3070068359375)"><g id="tx_identify_qu0xi9iwircw-fill" stroke="none" fill="#000000"><g><text style="font: bold 20px &quot;Space Grotesk Regular&quot;, sans-serif; white-space: pre;" font-weight="bold" font-size="20px" font-family="'Space Grotesk Regular', sans-serif"><tspan x="12" y="35" dominant-baseline="ideographic">Identify </tspan><tspan x="12" y="59" dominant-baseline="ideographic">Improvement Areas</tspan></text></g></g></g><g id="g-root-1_94nhcximughv-fill" data-item-order="0" transform="translate(362.5, 242.5)"></g><g id="g-root-corr_18lxbxdiwveva-fill" data-item-order="0" transform="translate(602.5, 242.5)"></g><g id="g-root-tx_encourag_m97moxiwk64m-fill" data-item-order="0" transform="translate(38.5, 279.3070068359375)"><g id="tx_encourag_m97moxiwk64m-fill" stroke="none" fill="#000000"><g><text style="font: 15px Montserrat, sans-serif; white-space: pre;" font-size="15px" font-family="Montserrat, sans-serif"><tspan x="44.03" y="28" dominant-baseline="ideographic">Encourage collective </tspan><tspan x="106.45" y="46" dominant-baseline="ideographic">involvement</tspan></text></g></g></g><g id="g-root-tx_recogniz_1qd7fkxiwiryi-fill" data-item-order="0" transform="translate(782.5, 278.3070068359375)"><g id="tx_recogniz_1qd7fkxiwiryi-fill" stroke="none" fill="#000000"><g><text style="font: 15px Montserrat, sans-serif; white-space: pre;" font-size="15px" font-family="Montserrat, sans-serif"><tspan x="12" y="28" dominant-baseline="ideographic">Recognize areas </tspan><tspan x="12" y="46" dominant-baseline="ideographic">needing enhancement</tspan></text></g></g></g><g id="g-root-tx_standard_1q6c7mpiwk7pf-fill" data-item-order="0" transform="translate(38.5, 422.3070068359375)"><g id="tx_standard_1q6c7mpiwk7pf-fill" stroke="none" fill="#000000"><g><text style="font: bold 20px &quot;Space Grotesk Regular&quot;, sans-serif; white-space: pre;" font-weight="bold" font-size="20px" font-family="'Space Grotesk Regular', sans-serif"><tspan x="12" y="35" dominant-baseline="ideographic">Standardize </tspan><tspan x="12" y="59" dominant-baseline="ideographic">Successful </tspan><tspan x="12" y="83" dominant-baseline="ideographic">Practices</tspan></text></g></g></g><g id="g-root-tx_implemen_147zc81iwitcf-fill" data-item-order="0" transform="translate(782.5, 422.3070068359375)"><g id="tx_implemen_147zc81iwitcf-fill" stroke="none" fill="#000000"><g><text style="font: bold 20px &quot;Space Grotesk Regular&quot;, sans-serif; white-space: pre;" font-weight="bold" font-size="20px" font-family="'Space Grotesk Regular', sans-serif"><tspan x="12" y="35" dominant-baseline="ideographic">Implement Small </tspan><tspan x="12" y="59" dominant-baseline="ideographic">Changes</tspan></text></g></g></g><g id="g-root-chec_zoet9diwr6kg-fill" data-item-order="0" transform="translate(326.5, 458.5)"></g><g id="g-root-tool_1qa2yzliwn0nh-fill" data-item-order="0" transform="translate(638.5, 458.5)"></g><g id="g-root-tx_applymin_v2z7ohiwk6bk-fill" data-item-order="0" transform="translate(782.5, 482.3070068359375)"><g id="tx_applymin_v2z7ohiwk6bk-fill" stroke="none" fill="#000000"><g><text style="font: 15px Montserrat, sans-serif; white-space: pre;" font-size="15px" font-family="Montserrat, sans-serif"><tspan x="12" y="31" dominant-baseline="ideographic">Apply minor </tspan><tspan x="12" y="49" dominant-baseline="ideographic">adjustments for </tspan><tspan x="12" y="67" dominant-baseline="ideographic">improvement</tspan></text></g></g></g><g id="g-root-tx_establis_1cvi6chiwk64k-fill" data-item-order="0" transform="translate(38.5, 506.3070068359375)"><g id="tx_establis_1cvi6chiwk64k-fill" stroke="none" fill="#000000"><g><text style="font: 15px Montserrat, sans-serif; white-space: pre;" font-size="15px" font-family="Montserrat, sans-serif"><tspan x="12" y="28" dominant-baseline="ideographic">Establish new standards </tspan><tspan x="12" y="46" dominant-baseline="ideographic">for success</tspan></text></g></g></g><g id="g-root-bars_1hfotr5ix2fpq-fill" data-item-order="0" transform="translate(482.5, 674.5)"></g><g id="g-root-tx_monitorr_8wi65diwk5jd-fill" data-item-order="0" transform="translate(410.5, 800.3070068359375)"><g id="tx_monitorr_8wi65diwk5jd-fill" stroke="none" fill="#000000"><g><text style="font: bold 20px &quot;Space Grotesk Regular&quot;, sans-serif; white-space: pre;" font-weight="bold" font-size="20px" font-family="'Space Grotesk Regular', sans-serif"><tspan x="29.7" y="35" dominant-baseline="ideographic">Monitor Results</tspan></text></g></g></g><g id="g-root-tx_evaluate_1um5pr5iwk6x6-fill" data-item-order="0" transform="translate(410.5, 836.3070068359375)"><g id="tx_evaluate_1um5pr5iwk6x6-fill" stroke="none" fill="#000000"><g><text style="font: 15px Montserrat, sans-serif; white-space: pre;" font-size="15px" font-family="Montserrat, sans-serif"><tspan x="19.27" y="28" dominant-baseline="ideographic">Evaluate the impact of </tspan><tspan x="71.98" y="46" dominant-baseline="ideographic">changes</tspan></text></g></g></g><g id="g-root-5.g-5_fr_dilk81imugp4-stroke" data-item-order="-826556" transform="translate(290.5, 122.5009765625)"><g id="5.g-5_fr_dilk81imugp4-stroke" fill="none" stroke-linecap="butt" stroke-linejoin="miter" stroke-miterlimit="4" stroke="#95bdff" stroke-width="1"><g><path d="M 10 249.9999L 10 289.4286L 70 238L 130 289.4286L 130 249.9999C 130 205.2678 160.5946 167.6814 202 157.0244L 202 178L 274 94L 202 10L 202 35.3182C 94.0012 47.2569 10 138.8187 10 249.9999Z"></path></g></g></g><g id="g-root-4.g-4_fr_7rixtimuf4a-stroke" data-item-order="-826552" transform="translate(266.5, 350.5)"><g id="4.g-4_fr_7rixtimuf4a-stroke" fill="none" stroke-linecap="butt" stroke-linejoin="miter" stroke-miterlimit="4" stroke="#4f92ff" stroke-width="1"><g><path d="M 34 82L 34 202C 34 232.2832 40.232 261.1108 51.4834 287.2703L 76 217.6465L 159.1896 233.2169C 155.826 223.4301 154 212.9283 154 202L 154 82L 178 82L 94 10L 10 82L 34 82Z"></path></g></g></g><g id="g-root-3.g-3_fr_1ut22shimufpg-stroke" data-item-order="-826548" transform="translate(295.7539978027344, 558.14697265625)"><g id="3.g-3_fr_1ut22shimufpg-stroke" fill="none" stroke-linecap="butt" stroke-linejoin="miter" stroke-miterlimit="4" stroke="#4e88e7" stroke-width="1"><g><path d="M 10 114.3538L 32.9316 101.1143C 70.0995 166.3596 140.2851 210.3535 220.7461 210.3535C 308.3771 210.3535 383.8198 158.1695 417.6941 83.1818L 334.7461 98.707L 310.2494 29.1401C 296.3163 64.9635 261.4963 90.3535 220.7461 90.3535C 184.6981 90.3535 153.2906 70.4849 136.8773 41.1012L 155.4923 30.3538L 46.7461 10L 10 114.3538Z"></path></g></g></g><g id="g-root-2.g-2_fr_1hi81i9imue4m-stroke" data-item-order="-826544" transform="translate(583.7540283203125, 371.071044921875)"><g id="2.g-2_fr_1hi81i9imue4m-stroke" fill="none" stroke-linecap="butt" stroke-linejoin="miter" stroke-miterlimit="4" stroke="#507fcc" stroke-width="1"><g><path d="M 88.7462 61.4286L 28.7462 10L 28.7462 181.4287C 28.7462 184.9754 28.5538 188.4771 28.179 191.9241L 10 181.4284L 46.7462 285.7822L 155.4923 265.4284L 136.1577 254.2656C 144.307 231.5094 148.7462 206.9875 148.7462 181.4287L 148.7462 10L 88.7462 61.4286Z"></path></g></g></g><g id="g-root-1.g-1_fr_146rj4ximufpk-stroke" data-item-order="-826540" transform="translate(503.01800537109375, 146.5)"><g id="1.g-1_fr_146rj4ximufpk-stroke" fill="none" stroke-linecap="butt" stroke-linejoin="miter" stroke-miterlimit="4" stroke="#415c87" stroke-width="1"><g><path d="M 61.4816 70L 10 130.0619C 11.1555 130.0207 12.3161 129.9999 13.4816 129.9999C 62.4371 129.9999 102.8338 166.6442 108.7389 214L 85.4816 214L 169.4816 286L 253.4816 214L 229.1539 214C 222.9274 100.2881 128.7485 10 13.4816 10C 12.3442 10 11.2089 10.0089 10.0756 10.0264L 61.4816 70Z"></path></g></g></g><g id="g-root-tx_kaizency_mg3zq9imuewy-stroke" data-item-order="0" transform="translate(410.5, 38.5)"></g><g id="g-root-tx_fosterte_zk1nz5iwk7ph-stroke" data-item-order="0" transform="translate(38.5, 219.3070068359375)"></g><g id="g-root-tx_identify_qu0xi9iwircw-stroke" data-item-order="0" transform="translate(782.5, 218.3070068359375)"></g><g id="g-root-1_94nhcximughv-stroke" data-item-order="0" transform="translate(362.5, 242.5)"><g id="1_94nhcximughv-stroke" fill="none" stroke-linecap="butt" stroke-linejoin="miter" stroke-miterlimit="4" stroke="#ffffff" stroke-width="1"><g><path d="M 13.573999 19.897999C 13.573494 22.364861 15.573139 24.364916 18.040001 24.364916C 20.506863 24.364916 22.506506 22.364861 22.506001 19.897999C 22.506506 17.431139 20.506863 15.431085 18.040001 15.431085C 15.573139 15.431085 13.573494 17.431139 13.573999 19.897999M 25.082001 30.288C 24.170483 28.151152 22.337574 26.544111 20.099884 25.91983C 17.862194 25.295547 15.46207 25.721638 13.576 27.078001M 45.493999 19.897999C 45.493496 22.364861 47.493137 24.364916 49.959999 24.364916C 52.426861 24.364916 54.426506 22.364861 54.425999 19.897999C 54.426506 17.431139 52.426861 15.431085 49.959999 15.431085C 47.493137 15.431085 45.493496 17.431139 45.493999 19.897999M 42.917999 30.288C 43.829517 28.151152 45.66243 26.544111 47.90012 25.91983C 50.13781 25.295547 52.53793 25.721638 54.424 27.078001M 27.177999 17.822001C 27.178001 21.589687 30.232315 24.644001 34 24.644001C 37.767685 24.644001 40.821999 21.589687 40.821999 17.822001C 40.821999 14.054314 37.767685 11 34 11C 30.232315 11 27.178001 14.054314 27.178001 17.822001M 45.799999 32.896C 42.775593 29.575022 38.491764 27.682236 34 27.682236C 29.508236 27.682236 25.224407 29.575022 22.200001 32.896M 42.085999 37.799999C 42.086548 42.266163 38.466164 45.886993 34 45.886993C 29.53384 45.886993 25.913454 42.266163 25.914001 37.800003M 53.200001 37.785999L 53.200001 40.827999L 49.731998 41.52L 49.731998 41.52C 49.33094 43.205883 48.658867 44.815487 47.742001 46.285999L 47.742001 46.285999L 49.723999 49.236L 45.438 53.521999L 42.486 51.542L 42.486 51.542C 41.016136 52.465157 39.404716 53.140804 37.716 53.542L 37.716 53.542L 37.031998 57L 30.968 57L 30.280001 53.543999L 30.280001 53.543999C 28.590656 53.142807 26.97858 52.467167 25.507999 51.544003L 25.507999 51.543999L 22.557999 53.523998L 18.271999 49.236L 20.251999 46.285999L 20.251999 46.285999C 19.331631 44.816124 18.656166 43.206493 18.251999 41.519997L 18.251999 41.52L 14.8 40.827999L 14.8 37.785999M 28.927999 13.27C 32.170067 16.243809 36.422901 17.871429 40.821999 17.822001M 14.1 17.822001C 16.625675 19.366158 19.540253 20.155869 22.5 20.098M 46.018002 17.822001C 48.543762 19.36595 51.458275 20.155643 54.417999 20.098"></path></g></g></g><g id="g-root-corr_18lxbxdiwveva-stroke" data-item-order="0" transform="translate(602.5, 242.5)"><g id="corr_18lxbxdiwveva-stroke" fill="none" stroke-linecap="butt" stroke-linejoin="miter" stroke-miterlimit="4" stroke="#ffffff" stroke-width="1"><g><path d="M 29 33L 39 23M 39.585999 16.414C 39.210899 16.788986 39.000114 17.297611 39 17.827999L 39 23L 44.172001 23C 44.702389 22.999886 45.211014 22.789099 45.585999 22.414L 51 17L 45 17L 45 11ZM 29 43C 23.870075 42.998661 19.5732 39.115749 19.053965 34.012169C 18.534729 28.908587 21.961569 24.239868 26.986116 23.205423C 32.010662 22.170977 37.003021 25.106361 38.542 30M 29 51C 21.847187 50.995258 15.375898 46.755779 12.514719 40.200142C 9.65354 33.644501 10.945453 26.016806 15.805803 20.76897C 20.666153 15.521139 28.172562 13.649081 34.928001 16M 33 45C 33 51.627419 38.372581 57 45 57C 51.627419 57 57 51.627419 57 45C 57 38.372581 51.627419 33 45 33C 38.372581 33 33 38.372581 33 45ZM 50.348 41.512001L 44.537998 49.257999C 44.276516 49.605347 43.877514 49.822548 43.443855 49.853607C 43.010197 49.884663 42.584312 49.72654 42.276001 49.419998L 39.276001 46.419998"></path></g></g></g><g id="g-root-tx_encourag_m97moxiwk64m-stroke" data-item-order="0" transform="translate(38.5, 279.3070068359375)"></g><g id="g-root-tx_recogniz_1qd7fkxiwiryi-stroke" data-item-order="0" transform="translate(782.5, 278.3070068359375)"></g><g id="g-root-tx_standard_1q6c7mpiwk7pf-stroke" data-item-order="0" transform="translate(38.5, 422.3070068359375)"></g><g id="g-root-tx_implemen_147zc81iwitcf-stroke" data-item-order="0" transform="translate(782.5, 422.3070068359375)"></g><g id="g-root-chec_zoet9diwr6kg-stroke" data-item-order="0" transform="translate(326.5, 458.5)"><g id="chec_zoet9diwr6kg-stroke" fill="none" stroke-linecap="butt" stroke-linejoin="miter" stroke-miterlimit="4" stroke="#ffffff" stroke-width="1"><g><path d="M 19 27L 38 27M 19 33L 31 33M 19 21L 33 21M 19 39L 27 39M 19 45L 27 45M 31 57L 13 57C 11.895431 57 11 56.104568 11 55L 11 13C 11 11.895431 11.895431 11 13 11L 39.585999 11C 40.11639 11.000113 40.625015 11.210901 41 11.586L 48.414001 19C 48.789101 19.374985 48.999886 19.88361 49 20.414L 49 27M 33 45C 33 51.627419 38.372581 57 45 57C 51.627419 57 57 51.627419 57 45C 57 38.372581 51.627419 33 45 33C 38.372581 33 33 38.372581 33 45ZM 50.348 41.512001L 44.537998 49.257999C 44.276516 49.605347 43.877514 49.822548 43.443855 49.853607C 43.010197 49.884663 42.584312 49.72654 42.276001 49.419998L 39.276001 46.419998"></path></g></g></g><g id="g-root-tool_1qa2yzliwn0nh-stroke" data-item-order="0" transform="translate(638.5, 458.5)"><g id="tool_1qa2yzliwn0nh-stroke" fill="none" stroke-linecap="butt" stroke-linejoin="miter" stroke-miterlimit="4" stroke="#ffffff" stroke-width="1"><g><path d="M 10 10M 19.18408 34.615997L 20.98406 33.015999C 21.584061 32.416 21.98406 31.416 21.98406 30.615999C 21.98406 29.815981 21.584061 28.81596 20.98406 28.21596L 19.18408 26.61598C 18.18408 25.61598 17.784081 24.21596 18.384079 22.81596C 18.984081 21.615959 20.184101 20.615959 21.584099 20.81596L 23.98406 21.01598C 24.98406 21.01598 25.7841 20.61598 26.584101 20.01598C 27.184099 19.415981 27.584101 18.41596 27.584101 17.41596L 27.384081 15.01598C 27.384081 13.61598 28.18408 12.41596 29.384081 11.815962C 30.584 11.215962 32.183998 11.61598 33.183998 12.61598L 34.784 14.41596C 35.384003 15.015961 36.384003 15.41596 37.183998 15.41596C 38.183998 15.41596 38.984001 15.015961 39.584 14.41596L 41.183998 12.61598C 42.183998 11.61598 43.584 11.215962 44.984001 11.815962C 46.183998 12.41596 47.183998 13.61598 46.984001 15.01598L 46.784 17.41596C 46.784 18.41596 47.183998 19.215981 47.784 20.01598C 48.383999 20.61598 49.383999 21.01598 50.383999 21.01598L 52.784 20.81596C 54.183998 20.81596 55.383999 21.615959 55.984001 22.81596C 56.584 24.015961 56.183998 25.61598 55.183998 26.61598L 53.383999 28.21596C 52.784 28.81596 52.383999 29.815981 52.383999 30.615999C 52.383999 31.416 52.784 32.416 53.383999 33.015999L 55.183998 34.615997C 56.183998 35.615997 56.584 37.015999 55.984001 38.416C 55.383999 39.615997 54.183998 40.615997 52.784 40.416L 50.383999 40.216C 49.383999 40.216 48.584 40.615997 47.784 41.216C 47.183998 41.816002 46.784 42.816002 46.784 43.816002L 46.984001 46.216C 46.984001 47.616001 46.183998 48.816002 44.984001 49.416C 43.784 50.015999 42.183998 49.616001 41.183998 48.616001L 39.584 46.816002C 38.984001 46.216 37.984001 45.816002 37.183998 45.816002C 36.183998 45.816002 35.384003 46.216 34.784 46.816002L 33.183998 48.616001M 46.1842 33.416C 45.784199 34.615997 45.1842 35.816002 44.1842 36.816002C 41.584198 39.416 37.784203 40.015999 34.384201 38.816002L 17.78414 55.416C 16.38414 56.816002 14.18414 56.816002 12.78414 55.416C 11.38413 54.015999 11.38413 51.816002 12.78414 50.416L 29.384159 33.816002C 27.784161 30.016001 28.98414 25.41596 32.9842 22.81596C 35.384201 21.21596 38.584198 21.01594 41.1842 22.21594C 43.784199 23.415939 45.384201 25.21596 45.9842 27.41596L 38.9842 27.41596C 37.384201 27.41596 35.9842 28.81596 35.9842 30.416C 35.9842 32.015999 37.384201 33.416 38.9842 33.416L 46.1842 33.416Z"></path></g></g></g><g id="g-root-tx_applymin_v2z7ohiwk6bk-stroke" data-item-order="0" transform="translate(782.5, 482.3070068359375)"></g><g id="g-root-tx_establis_1cvi6chiwk64k-stroke" data-item-order="0" transform="translate(38.5, 506.3070068359375)"></g><g id="g-root-bars_1hfotr5ix2fpq-stroke" data-item-order="0" transform="translate(482.5, 674.5)"><g id="bars_1hfotr5ix2fpq-stroke" fill="none" stroke-linecap="butt" stroke-linejoin="miter" stroke-miterlimit="4" stroke="#ffffff" stroke-width="1"><g><path d="M 10.882 49L 56.882 49M 18.882 49L 18.882 40C 18.882 39.447716 18.434284 39 17.882 39L 13.882 39C 13.329716 39 12.882 39.447716 12.882 40L 12.882 49M 30.882 49L 30.882 30C 30.882 29.447716 30.434284 29 29.882 29L 25.882 29C 25.329716 29 24.882 29.447716 24.882 30L 24.882 49M 42.882 49L 42.882 34C 42.882 33.447716 42.434284 33 41.882 33L 37.882 33C 37.329716 33 36.882 33.447716 36.882 34L 36.882 49M 54.882 49L 54.882 20C 54.882 19.447716 54.434284 19 53.882 19L 49.882 19C 49.329716 19 48.882 19.447716 48.882 20L 48.882 49"></path></g></g></g><g id="g-root-tx_monitorr_8wi65diwk5jd-stroke" data-item-order="0" transform="translate(410.5, 800.3070068359375)"></g><g id="g-root-tx_evaluate_1um5pr5iwk6x6-stroke" data-item-order="0" transform="translate(410.5, 836.3070068359375)"></g></g></g></svg>