<svg width="419" height="938" viewBox="0 0 419 938" fill="#6772e5" xmlns="http://www.w3.org/2000/svg">
<mask id="mask0_3209_2123" style="mask-type:alpha" maskUnits="userSpaceOnUse" x="0" y="0" width="419" height="938">
<rect width="419" height="938" fill="#6772e5"/>
</mask>
<g mask="url(#mask0_3209_2123)">
<g opacity="0.8">
<path d="M-769.757 517.282C-769.533 512.281 -767.896 507.457 -765.016 503.335L-302.739 -157.567C-298.69 -163.363 -292.62 -167.233 -285.644 -168.467C-278.667 -169.701 -271.625 -168.158 -265.818 -164.12L397.236 296.878C404.727 302.085 408.964 310.638 408.561 319.743C408.337 324.744 406.7 329.568 403.82 333.69L-58.4472 994.583C-62.4966 1000.38 -68.5661 1004.25 -75.5426 1005.48C-82.5192 1006.73 -89.5612 1005.17 -95.3688 1001.14L-758.423 540.137C-765.913 534.93 -770.15 526.387 -769.757 517.272V517.282ZM406.438 319.65C406.803 311.274 402.904 303.403 396.011 298.617L-267.033 -162.381C-272.373 -166.102 -278.854 -167.523 -285.27 -166.382C-291.685 -165.242 -297.268 -161.68 -300.99 -156.352L-763.267 504.541C-765.923 508.336 -767.428 512.767 -767.625 517.366C-767.99 525.751 -764.09 533.612 -757.207 538.408L-94.1531 999.397C-88.8037 1003.12 -82.3322 1004.54 -75.9074 1003.4C-69.4919 1002.26 -63.9088 998.696 -60.1774 993.368L402.09 332.475C404.746 328.68 406.251 324.239 406.448 319.65H406.438Z" fill="#6772e5"/>
<path d="M-773.284 491.707C-773.068 486.715 -771.404 481.92 -768.467 477.835L-309.679 -160.633C-305.658 -166.232 -299.682 -169.934 -292.864 -171.056C-286.047 -172.177 -279.192 -170.588 -273.571 -166.569L366.982 290.952C374.118 296.047 378.148 304.32 377.774 313.069C377.55 318.061 375.894 322.866 372.958 326.951L-85.8305 965.418C-94.135 976.981 -110.342 979.646 -121.938 971.363L-762.501 513.833C-769.636 508.739 -773.667 500.466 -773.284 491.707ZM375.642 312.976C375.997 304.937 372.294 297.346 365.738 292.663L-274.815 -164.849C-279.968 -168.532 -286.262 -169.999 -292.518 -168.971C-298.784 -167.943 -304.264 -164.54 -307.958 -159.399L-766.746 479.068C-769.44 482.817 -770.964 487.22 -771.17 491.8C-771.525 499.839 -767.822 507.43 -761.266 512.104L-120.713 969.634C-110.061 977.234 -95.1918 974.794 -87.5699 964.184L371.218 325.717C373.912 321.969 375.446 317.566 375.642 312.985V312.976Z" fill="#6772e5"/>
<path d="M-776.826 466.14C-776.611 461.148 -774.918 456.371 -771.926 452.333L-316.616 -163.699C-308.359 -174.87 -292.526 -177.254 -281.322 -169.028L336.73 285.016C343.519 289.998 347.344 297.991 346.98 306.395C346.765 311.386 345.072 316.163 342.089 320.201L-113.221 936.234C-117.223 941.646 -123.096 945.18 -129.764 946.18C-136.432 947.189 -143.091 945.544 -148.515 941.562L-766.586 487.518C-773.366 482.536 -777.2 474.544 -776.836 466.14H-776.826ZM344.847 306.31C345.184 298.617 341.677 291.288 335.467 286.727L-282.585 -167.317C-292.844 -174.861 -307.349 -172.664 -314.914 -162.437L-770.224 453.595C-772.964 457.297 -774.516 461.672 -774.713 466.243C-775.049 473.936 -771.542 481.255 -765.323 485.817L-147.281 939.87C-142.305 943.525 -136.208 945.021 -130.101 944.105C-123.994 943.189 -118.617 939.945 -114.951 934.99L340.359 318.958C343.089 315.256 344.642 310.891 344.847 306.31Z" fill="#6772e5"/>
<path d="M-780.37 440.573C-780.155 435.582 -778.434 430.833 -775.385 426.832L-323.564 -166.766C-319.59 -171.982 -313.819 -175.347 -307.31 -176.235C-300.801 -177.123 -294.33 -175.431 -289.093 -171.468L306.458 279.108C312.892 283.978 316.521 291.69 316.166 299.739C315.941 304.73 314.23 309.479 311.181 313.48L-140.649 907.087C-148.851 917.856 -164.319 919.978 -175.12 911.798L-770.662 461.204C-777.096 456.334 -780.725 448.631 -780.37 440.573ZM314.061 299.636C314.379 292.279 311.06 285.231 305.187 280.781L-290.365 -169.785C-295.153 -173.403 -301.063 -174.954 -307.011 -174.141C-312.959 -173.328 -318.234 -170.252 -321.862 -165.485L-773.702 428.122C-776.479 431.777 -778.06 436.114 -778.256 440.676C-778.574 448.033 -775.264 455.081 -769.381 459.531L-173.83 910.106C-163.954 917.575 -149.823 915.65 -142.333 905.806L309.498 312.199C312.275 308.544 313.846 304.207 314.052 299.645L314.061 299.636Z" fill="#6772e5"/>
<path d="M-783.928 415.008C-783.704 410.016 -781.955 405.286 -778.859 401.332L-330.508 -169.831C-326.561 -174.86 -320.885 -178.057 -314.535 -178.824C-308.175 -179.6 -301.9 -177.852 -296.85 -173.916L276.191 273.182C282.279 277.931 285.711 285.362 285.374 293.065C285.159 298.057 283.401 302.787 280.306 306.741L-168.046 877.913C-171.992 882.942 -177.669 886.139 -184.028 886.905C-190.388 887.681 -196.663 885.943 -201.703 882.007L-774.754 434.9C-780.842 430.151 -784.265 422.71 -783.937 415.008H-783.928ZM283.261 292.971C283.57 285.942 280.437 279.165 274.891 274.837L-298.15 -172.262C-302.751 -175.851 -308.475 -177.44 -314.264 -176.73C-320.062 -176.029 -325.233 -173.112 -328.834 -168.532L-777.185 402.65C-780.01 406.249 -781.609 410.558 -781.805 415.11C-782.114 422.131 -778.981 428.908 -773.435 433.245L-200.385 880.343C-195.784 883.924 -190.06 885.513 -184.271 884.811C-178.473 884.11 -173.302 881.194 -169.701 876.613L278.65 305.441C281.475 301.842 283.074 297.533 283.27 292.981L283.261 292.971Z" fill="#6772e5"/>
<path d="M-787.488 389.442C-787.273 384.441 -785.486 379.739 -782.316 375.841L-337.444 -172.906C-329.354 -182.889 -314.615 -184.441 -304.599 -176.374L245.95 267.256C251.692 271.874 254.919 279.035 254.601 286.391C254.386 291.392 252.6 296.094 249.439 299.993L-195.443 848.73C-199.362 853.572 -204.945 856.591 -211.145 857.246C-217.355 857.9 -223.443 856.115 -228.287 852.198L-778.828 408.586C-784.57 403.959 -787.806 396.808 -787.478 389.442H-787.488ZM252.478 286.307C252.768 279.614 249.831 273.108 244.613 268.902L-305.927 -174.729C-315.036 -182.067 -328.428 -180.655 -335.788 -171.578L-780.67 377.178C-783.541 380.72 -785.168 384.992 -785.365 389.536C-785.655 396.229 -782.718 402.735 -777.5 406.941L-226.95 850.571C-222.536 854.133 -217 855.76 -211.37 855.161C-205.731 854.563 -200.652 851.815 -197.099 847.421L247.783 298.674C250.654 295.132 252.282 290.85 252.478 286.307Z" fill="#6772e5"/>
<path d="M-791.041 363.875C-790.826 358.873 -789.002 354.2 -785.776 350.339L-344.382 -175.973C-340.483 -180.619 -335.012 -183.47 -328.961 -184.012C-322.91 -184.554 -317.009 -182.703 -312.352 -178.824L215.697 261.329C221.177 265.9 224.142 272.602 223.833 279.725C223.618 284.736 221.794 289.41 218.559 293.261L-222.835 819.573C-230.878 829.164 -245.242 830.435 -254.865 822.424L-782.914 382.271C-788.394 377.7 -791.359 370.998 -791.05 363.865L-791.041 363.875ZM221.71 279.641C221.991 273.182 219.307 267.106 214.341 262.965L-313.708 -177.197C-317.935 -180.722 -323.284 -182.386 -328.765 -181.899C-334.254 -181.413 -339.211 -178.824 -342.746 -174.608L-784.149 351.694C-787.076 355.19 -788.731 359.425 -788.927 363.959C-789.208 370.418 -786.515 376.503 -781.549 380.635L-253.5 820.797C-244.775 828.07 -231.757 826.911 -224.462 818.217L216.931 291.905C219.859 288.419 221.514 284.175 221.71 279.632V279.641Z" fill="#6772e5"/>
<path d="M-794.617 338.31C-794.402 333.299 -792.532 328.644 -789.23 324.839L-351.325 -179.038C-347.453 -183.487 -342.076 -186.17 -336.184 -186.591C-330.283 -187.012 -324.578 -185.114 -320.118 -181.253L185.421 255.422C190.565 259.862 193.333 266.294 193.043 273.071C192.818 278.081 190.967 282.737 187.665 286.541L-250.258 790.418C-254.121 794.877 -259.508 797.56 -265.399 797.981C-271.291 798.392 -277.005 796.504 -281.466 792.643L-786.995 355.958C-792.139 351.518 -794.907 345.087 -794.617 338.31ZM190.939 272.977C191.21 266.845 188.694 261.031 184.056 257.021L-321.492 -179.664C-325.532 -183.16 -330.695 -184.871 -336.025 -184.488C-341.356 -184.104 -346.219 -181.683 -349.716 -177.654L-787.631 326.223C-790.614 329.663 -792.298 333.869 -792.494 338.403C-792.765 344.535 -790.25 350.35 -785.611 354.36L-280.073 791.044C-276.032 794.531 -270.87 796.242 -265.54 795.868C-260.209 795.494 -255.355 793.064 -251.848 789.044L186.066 285.158C189.05 281.727 190.742 277.511 190.929 272.987L190.939 272.977Z" fill="#6772e5"/>
<path d="M-798.189 312.743C-797.974 307.788 -796.02 303.03 -792.69 299.338L-358.255 -182.113C-354.411 -186.376 -349.127 -188.891 -343.385 -189.19C-337.643 -189.489 -332.125 -187.544 -327.851 -183.712L155.186 249.495C159.984 253.795 162.574 259.956 162.294 266.396C162.079 271.351 160.124 276.109 156.795 279.801L-277.641 761.252C-281.484 765.506 -286.759 768.02 -292.51 768.329C-298.253 768.628 -303.77 766.684 -308.044 762.851L-791.082 329.634C-795.879 325.334 -798.47 319.174 -798.189 312.743ZM160.18 266.303C160.433 260.498 158.095 254.945 153.774 251.066L-329.282 -182.141C-333.135 -185.6 -338.101 -187.348 -343.282 -187.077C-348.454 -186.806 -353.214 -184.544 -356.684 -180.702L-791.119 300.759C-794.121 304.087 -795.879 308.377 -796.076 312.836C-796.328 318.641 -793.99 324.194 -789.67 328.073L-306.623 761.281C-302.77 764.73 -297.804 766.487 -292.623 766.216C-287.451 765.945 -282.691 763.683 -279.221 759.841L155.214 278.389C158.216 275.062 159.984 270.771 160.171 266.312L160.18 266.303Z" fill="#6772e5"/>
<path d="M-801.777 287.175C-801.562 282.211 -799.56 277.472 -796.147 273.836L-365.19 -185.181C-361.375 -189.247 -356.194 -191.594 -350.601 -191.771C-345.009 -191.949 -339.687 -189.958 -335.61 -186.153L124.936 243.577C129.407 247.746 131.81 253.626 131.548 259.73C131.333 264.693 129.332 269.433 125.918 273.069L-305.038 732.086C-312.922 740.48 -326.193 740.919 -334.619 733.058L-795.165 303.328C-799.626 299.159 -802.039 293.27 -801.767 287.175H-801.777ZM129.425 259.636C129.659 254.158 127.499 248.868 123.487 245.119L-337.06 -184.611C-340.726 -188.032 -345.514 -189.827 -350.536 -189.659C-355.558 -189.49 -360.215 -187.387 -363.647 -183.732L-794.594 275.284C-797.662 278.547 -799.458 282.8 -799.654 287.268C-799.888 292.746 -797.727 298.037 -793.715 301.786L-333.169 731.515C-325.603 738.582 -313.67 738.19 -306.591 730.646L124.366 271.62C127.433 268.358 129.229 264.104 129.425 259.636Z" fill="#6772e5"/>
<path d="M-805.37 261.6C-805.155 256.618 -803.107 251.906 -799.61 248.336L-372.122 -188.256C-364.285 -196.257 -351.389 -196.407 -343.365 -188.601L94.6808 237.66C98.8143 241.689 101.049 247.298 100.797 253.066C100.582 258.048 98.5338 262.769 95.0362 266.34L-332.442 702.931C-340.269 710.932 -353.175 711.091 -361.199 703.277L-799.254 277.005C-803.388 272.986 -805.623 267.368 -805.37 261.6ZM98.6647 252.972C98.8892 247.812 96.8972 242.783 93.1938 239.175L-344.843 -187.087C-352.034 -194.079 -363.593 -193.939 -370.607 -186.779L-798.085 249.813C-801.218 253.01 -803.051 257.235 -803.247 261.694C-803.472 266.863 -801.48 271.883 -797.767 275.491L-359.731 701.753C-352.539 708.745 -340.98 708.605 -333.966 701.444L93.5118 264.853C96.6447 261.656 98.4776 257.431 98.674 252.963L98.6647 252.972Z" fill="#6772e5"/>
<path d="M-808.974 236.035C-808.75 231.024 -806.655 226.341 -803.064 222.826L-379.065 -191.33C-371.284 -198.93 -358.743 -198.799 -351.121 -191.04L64.4237 231.753C68.2393 235.633 70.2874 240.97 70.0536 246.401C69.8385 251.412 67.7343 256.105 64.1431 259.61L-359.856 673.766C-367.637 681.366 -380.178 681.235 -387.799 673.476L-803.344 250.692C-807.16 246.813 -809.208 241.466 -808.974 236.035ZM67.9307 246.299C68.1458 241.447 66.3128 236.689 62.9087 233.221L-352.627 -189.563C-359.435 -196.49 -370.629 -196.602 -377.568 -189.816L-801.577 224.341C-804.784 227.472 -806.655 231.66 -806.851 236.128C-807.057 240.97 -805.224 245.738 -801.82 249.206L-386.284 672C-379.476 678.926 -368.282 679.038 -361.333 672.243L62.6655 258.086C65.8732 254.955 67.7436 250.767 67.94 246.299H67.9307Z" fill="#6772e5"/>
<path d="M-812.581 210.468C-812.357 205.429 -810.206 200.774 -806.512 197.334L-385.992 -194.397C-382.242 -197.884 -377.36 -199.716 -372.235 -199.538C-367.11 -199.361 -362.369 -197.211 -358.862 -193.481L34.1729 225.836C37.7267 229.621 39.5503 234.557 39.3259 239.736C39.1014 244.774 36.9505 249.439 33.2565 252.879L-387.264 644.61C-394.988 651.808 -407.165 651.396 -414.384 643.694L-807.428 224.368C-810.973 220.582 -812.806 215.646 -812.581 210.468ZM37.203 239.642C37.3994 235.034 35.7814 230.65 32.6205 227.275L-360.414 -192.032C-363.519 -195.35 -367.746 -197.267 -372.3 -197.426C-376.855 -197.585 -381.204 -195.958 -384.533 -192.855L-805.062 198.867C-808.354 201.933 -810.262 206.074 -810.458 210.561C-810.655 215.16 -809.037 219.554 -805.876 222.919L-412.832 642.235C-406.407 649.087 -395.587 649.452 -388.704 643.049L31.8162 251.318C35.0988 248.261 37.0159 244.111 37.2123 239.633L37.203 239.642Z" fill="#6772e5"/>
<path d="M-816.198 184.9C-815.974 179.833 -813.757 175.188 -809.951 171.822L-392.919 -197.474C-385.241 -204.27 -373.439 -203.578 -366.612 -195.922L3.93087 219.917C7.1573 223.544 8.83131 228.208 8.61621 233.06C8.39176 238.127 6.17537 242.772 2.37847 246.138L-414.663 615.443C-422.341 622.239 -434.143 621.538 -440.97 613.882L-811.513 198.043C-814.749 194.416 -816.413 189.742 -816.198 184.891V184.9ZM6.49336 232.967C6.6804 228.667 5.21214 224.535 2.34109 221.319L-368.202 -194.52C-374.253 -201.306 -384.708 -201.923 -391.517 -195.903L-808.548 173.402C-811.915 176.384 -813.879 180.497 -814.075 184.993C-814.262 189.284 -812.785 193.425 -809.923 196.641L-439.38 612.48C-433.329 619.266 -422.883 619.883 -416.065 613.854L0.97568 244.558C4.34238 241.576 6.31562 237.454 6.50266 232.967H6.49336Z" fill="#6772e5"/>
</g>
</g>
<defs>
<linearGradient id="paint0_linear_3209_2123" x1="-180.597" y1="-168.881" x2="-180.597" y2="1005.9" gradientUnits="userSpaceOnUse">
<stop stop-color="#FFBE5F" stop-opacity="0"/>
<stop offset="1" stop-color="#ECF6FF"/>
</linearGradient>
<linearGradient id="paint1_linear_3209_2123" x1="-197.755" y1="-171.406" x2="-197.755" y2="976.181" gradientUnits="userSpaceOnUse">
<stop stop-color="#FFBE5F" stop-opacity="0"/>
<stop offset="1" stop-color="#ECF6FF"/>
</linearGradient>
<linearGradient id="paint2_linear_3209_2123" x1="-214.928" y1="-173.923" x2="-214.928" y2="946.47" gradientUnits="userSpaceOnUse">
<stop stop-color="#FFBE5F" stop-opacity="0"/>
<stop offset="1" stop-color="#ECF6FF"/>
</linearGradient>
<linearGradient id="paint3_linear_3209_2123" x1="-232.102" y1="-176.466" x2="-232.102" y2="916.778" gradientUnits="userSpaceOnUse">
<stop stop-color="#FFBE5F" stop-opacity="0"/>
<stop offset="1" stop-color="#ECF6FF"/>
</linearGradient>
<linearGradient id="paint4_linear_3209_2123" x1="-249.281" y1="-179.004" x2="-249.281" y2="887.086" gradientUnits="userSpaceOnUse">
<stop stop-color="#FFBE5F" stop-opacity="0"/>
<stop offset="1" stop-color="#ECF6FF"/>
</linearGradient>
<linearGradient id="paint5_linear_3209_2123" x1="-266.439" y1="-181.539" x2="-266.439" y2="857.378" gradientUnits="userSpaceOnUse">
<stop stop-color="#FFBE5F" stop-opacity="0"/>
<stop offset="1" stop-color="#ECF6FF"/>
</linearGradient>
<linearGradient id="paint6_linear_3209_2123" x1="-283.609" y1="-184.105" x2="-283.609" y2="827.689" gradientUnits="userSpaceOnUse">
<stop stop-color="#FFBE5F" stop-opacity="0"/>
<stop offset="1" stop-color="#ECF6FF"/>
</linearGradient>
<linearGradient id="paint7_linear_3209_2123" x1="-300.787" y1="-186.648" x2="-300.787" y2="798.036" gradientUnits="userSpaceOnUse">
<stop stop-color="#FFBE5F" stop-opacity="0"/>
<stop offset="1" stop-color="#ECF6FF"/>
</linearGradient>
<linearGradient id="paint8_linear_3209_2123" x1="-317.948" y1="-189.22" x2="-317.948" y2="768.359" gradientUnits="userSpaceOnUse">
<stop stop-color="#FFBE5F" stop-opacity="0"/>
<stop offset="1" stop-color="#ECF6FF"/>
</linearGradient>
<linearGradient id="paint9_linear_3209_2123" x1="-335.11" y1="-191.782" x2="-335.11" y2="738.679" gradientUnits="userSpaceOnUse">
<stop stop-color="#FFBE5F" stop-opacity="0"/>
<stop offset="1" stop-color="#ECF6FF"/>
</linearGradient>
<linearGradient id="paint10_linear_3209_2123" x1="-352.287" y1="-194.358" x2="-352.287" y2="709.036" gradientUnits="userSpaceOnUse">
<stop stop-color="#FFBE5F" stop-opacity="0"/>
<stop offset="1" stop-color="#ECF6FF"/>
</linearGradient>
<linearGradient id="paint11_linear_3209_2123" x1="-369.46" y1="-196.946" x2="-369.46" y2="679.382" gradientUnits="userSpaceOnUse">
<stop stop-color="#FFBE5F" stop-opacity="0"/>
<stop offset="1" stop-color="#ECF6FF"/>
</linearGradient>
<linearGradient id="paint12_linear_3209_2123" x1="-386.628" y1="-199.55" x2="-386.628" y2="649.751" gradientUnits="userSpaceOnUse">
<stop stop-color="#FFBE5F" stop-opacity="0"/>
<stop offset="1" stop-color="#ECF6FF"/>
</linearGradient>
<linearGradient id="paint13_linear_3209_2123" x1="-403.791" y1="-202.15" x2="-403.791" y2="620.115" gradientUnits="userSpaceOnUse">
<stop stop-color="#FFBE5F" stop-opacity="0"/>
<stop offset="1" stop-color="#ECF6FF"/>
</linearGradient>
</defs>
</svg>
