<svg width="417" height="916" viewBox="0 0 417 916" fill="#6772e5" xmlns="http://www.w3.org/2000/svg">
<mask id="mask0_3209_2148" style="mask-type:alpha" maskUnits="userSpaceOnUse" x="0" y="0" width="417" height="916">
<rect x="417" y="916" width="417" height="916" transform="rotate(180 417 916)" fill="#6772e5"/>
</mask>
<g mask="url(#mask0_3209_2148)">
<g opacity="0.8">
<path d="M1186.76 403.719C1186.53 408.72 1184.9 413.543 1182.02 417.666L719.739 1078.57C715.69 1084.36 709.62 1088.23 702.644 1089.47C695.667 1090.7 688.625 1089.16 682.818 1085.12L19.7638 624.122C12.2729 618.915 8.0365 610.362 8.43863 601.257C8.66308 596.256 10.2996 591.433 13.18 587.31L475.447 -73.5826C479.497 -79.3782 485.566 -83.2483 492.543 -84.4822C499.519 -85.7254 506.561 -84.1737 512.369 -80.1354L1175.42 380.863C1182.91 386.07 1187.15 394.614 1186.76 403.728V403.719ZM10.5615 601.351C10.1968 609.726 14.0965 617.597 20.9889 622.383L684.033 1083.38C689.373 1087.1 695.854 1088.52 702.27 1087.38C708.685 1086.24 714.268 1082.68 717.99 1077.35L1180.27 416.46C1182.92 412.664 1184.43 408.234 1184.62 403.634C1184.99 395.249 1181.09 387.388 1174.21 382.592L511.153 -78.3967C505.804 -82.1172 499.332 -83.5379 492.907 -82.3975C486.492 -81.2571 480.909 -77.6956 477.177 -72.3673L14.9101 588.525C12.2542 592.321 10.7486 596.761 10.5522 601.351H10.5615Z" fill="#6772e5"/>
<path d="M1190.28 429.293C1190.07 434.285 1188.4 439.081 1185.47 443.166L726.679 1081.63C722.658 1087.23 716.682 1090.93 709.864 1092.06C703.047 1093.18 696.192 1091.59 690.571 1087.57L50.018 630.048C42.8824 624.953 38.8517 616.68 39.2258 607.931C39.4502 602.939 41.1056 598.134 44.0421 594.049L502.83 -44.4179C511.135 -55.9812 527.342 -58.6454 538.938 -50.3632L1179.5 407.167C1186.64 412.262 1190.67 420.535 1190.28 429.293ZM41.3581 608.024C41.0027 616.063 44.706 623.654 51.2618 628.337L691.815 1085.85C696.968 1089.53 703.262 1091 709.518 1089.97C715.784 1088.94 721.264 1085.54 724.958 1080.4L1183.75 441.932C1186.44 438.183 1187.96 433.78 1188.17 429.2C1188.53 421.161 1184.82 413.57 1178.27 408.896L537.713 -48.6338C527.061 -56.2336 512.192 -53.7939 504.57 -43.1841L45.7815 595.283C43.0882 599.032 41.5545 603.435 41.3581 608.015V608.024Z" fill="#6772e5"/>
<path d="M1193.83 454.86C1193.61 459.852 1191.92 464.629 1188.93 468.667L733.616 1084.7C725.359 1095.87 709.526 1098.25 698.322 1090.03L80.27 635.984C73.4805 631.002 69.6556 623.009 70.0203 614.606C70.2354 609.614 71.9281 604.837 74.9114 600.799L530.221 -15.2335C534.223 -20.6459 540.096 -24.1794 546.764 -25.1796C553.432 -26.1891 560.091 -24.544 565.515 -20.5618L1183.59 433.482C1190.37 438.464 1194.2 446.457 1193.84 454.86H1193.83ZM72.1526 614.69C71.8159 622.383 75.3228 629.712 81.5325 634.273L699.585 1088.32C709.844 1095.86 724.349 1093.66 731.914 1083.44L1187.22 467.405C1189.96 463.703 1191.52 459.329 1191.71 454.757C1192.05 447.064 1188.54 439.745 1182.32 435.183L564.281 -18.8698C559.305 -22.5248 553.208 -24.0205 547.101 -23.1044C540.994 -22.1883 535.617 -18.9446 531.951 -13.9902L76.6415 602.042C73.9107 605.744 72.3584 610.109 72.1526 614.69Z" fill="#6772e5"/>
<path d="M1197.37 480.427C1197.15 485.419 1195.43 490.167 1192.39 494.168L740.564 1087.77C736.59 1092.98 730.819 1096.35 724.31 1097.24C717.801 1098.12 711.33 1096.43 706.093 1092.47L110.542 641.892C104.108 637.022 100.479 629.31 100.834 621.262C101.059 616.27 102.77 611.521 105.819 607.52L557.649 13.9133C565.851 3.14455 581.319 1.02266 592.12 9.20203L1187.66 459.796C1194.1 464.666 1197.73 472.369 1197.37 480.427ZM102.939 621.364C102.621 628.721 105.94 635.769 111.813 640.219L707.365 1090.79C712.153 1094.4 718.063 1095.95 724.011 1095.14C729.959 1094.33 735.234 1091.25 738.862 1086.49L1190.7 492.878C1193.48 489.223 1195.06 484.886 1195.26 480.324C1195.57 472.967 1192.26 465.919 1186.38 461.469L590.83 10.8939C580.954 3.425 566.823 5.35063 559.333 15.1939L107.502 608.801C104.725 612.456 103.154 616.793 102.948 621.355L102.939 621.364Z" fill="#6772e5"/>
<path d="M1200.93 505.993C1200.7 510.984 1198.95 515.714 1195.86 519.669L747.508 1090.83C743.561 1095.86 737.885 1099.06 731.535 1099.82C725.175 1100.6 718.9 1098.85 713.85 1094.92L140.809 647.818C134.721 643.07 131.289 635.638 131.626 627.935C131.841 622.944 133.599 618.214 136.694 614.259L585.046 43.0875C588.992 38.0583 594.669 34.8614 601.028 34.0948C607.388 33.319 613.663 35.0577 618.703 38.9931L1191.75 486.101C1197.84 490.849 1201.26 498.29 1200.94 505.993H1200.93ZM133.739 628.029C133.43 635.058 136.563 641.836 142.109 646.164L715.15 1093.26C719.751 1096.85 725.475 1098.44 731.264 1097.73C737.062 1097.03 742.233 1094.11 745.834 1089.53L1194.19 518.351C1197.01 514.752 1198.61 510.442 1198.81 505.89C1199.11 498.87 1195.98 492.092 1190.44 487.755L617.385 40.6569C612.784 37.0767 607.06 35.4877 601.271 36.1888C595.473 36.8898 590.302 39.8064 586.701 44.3868L138.35 615.559C135.525 619.158 133.926 623.467 133.73 628.019L133.739 628.029Z" fill="#6772e5"/>
<path d="M1204.49 531.558C1204.27 536.559 1202.49 541.261 1199.32 545.159L754.444 1093.91C746.354 1103.89 731.615 1105.44 721.599 1097.37L171.05 653.744C165.308 649.126 162.081 641.966 162.399 634.609C162.614 629.608 164.4 624.906 167.561 621.008L612.443 72.2703C616.362 67.4281 621.945 64.4088 628.145 63.7544C634.355 63.1001 640.443 64.8855 645.287 68.8023L1195.83 512.414C1201.57 517.041 1204.81 524.192 1204.48 531.558H1204.49ZM164.522 634.693C164.232 641.386 167.169 647.892 172.387 652.099L722.927 1095.73C732.036 1103.07 745.428 1101.66 752.788 1092.58L1197.67 543.823C1200.54 540.28 1202.17 536.008 1202.36 531.465C1202.65 524.772 1199.72 518.266 1194.5 514.059L643.95 70.4288C639.536 66.8673 634 65.2407 628.37 65.839C622.731 66.4372 617.652 69.1855 614.099 73.579L169.217 622.326C166.346 625.869 164.718 630.15 164.522 634.693Z" fill="#6772e5"/>
<path d="M1208.04 557.126C1207.83 562.127 1206 566.801 1202.78 570.661L761.382 1096.97C757.483 1101.62 752.012 1104.47 745.961 1105.01C739.91 1105.55 734.009 1103.7 729.352 1099.82L201.303 659.672C195.823 655.1 192.858 648.398 193.167 641.275C193.382 636.265 195.206 631.591 198.441 627.739L639.835 101.427C647.878 91.8366 662.242 90.5654 671.865 98.5765L1199.91 538.729C1205.39 543.3 1208.36 550.003 1208.05 557.135L1208.04 557.126ZM195.29 641.359C195.009 647.818 197.693 653.895 202.659 658.036L730.708 1098.2C734.935 1101.72 740.284 1103.39 745.765 1102.9C751.254 1102.41 756.211 1099.82 759.746 1095.61L1201.15 569.306C1204.08 565.81 1205.73 561.575 1205.93 557.042C1206.21 550.582 1203.51 544.497 1198.55 540.365L670.5 100.203C661.775 92.9304 648.757 94.0895 641.462 102.783L200.069 629.095C197.141 632.582 195.486 636.825 195.29 641.368V641.359Z" fill="#6772e5"/>
<path d="M1211.62 582.691C1211.4 587.701 1209.53 592.356 1206.23 596.161L768.325 1100.04C764.453 1104.49 759.076 1107.17 753.184 1107.59C747.283 1108.01 741.578 1106.11 737.118 1102.25L231.579 665.578C226.435 661.138 223.667 654.707 223.957 647.929C224.182 642.919 226.033 638.264 229.335 634.459L667.258 130.582C671.121 126.123 676.508 123.44 682.399 123.02C688.291 122.608 694.005 124.497 698.466 128.357L1204 565.042C1209.14 569.482 1211.91 575.914 1211.62 582.691ZM226.061 648.023C225.79 654.155 228.306 659.969 232.944 663.98L738.492 1100.66C742.532 1104.16 747.695 1105.87 753.025 1105.49C758.356 1105.1 763.219 1102.68 766.716 1098.65L1204.63 594.778C1207.61 591.337 1209.3 587.131 1209.49 582.597C1209.77 576.465 1207.25 570.651 1202.61 566.641L697.073 129.956C693.032 126.469 687.87 124.758 682.54 125.132C677.209 125.506 672.355 127.937 668.848 131.956L230.934 635.843C227.95 639.273 226.258 643.489 226.071 648.014L226.061 648.023Z" fill="#6772e5"/>
<path d="M1215.19 608.257C1214.97 613.212 1213.02 617.97 1209.69 621.662L775.255 1103.11C771.411 1107.38 766.127 1109.89 760.385 1110.19C754.643 1110.49 749.125 1108.54 744.851 1104.71L261.814 671.505C257.016 667.205 254.426 661.045 254.706 654.604C254.921 649.65 256.876 644.892 260.205 641.199L694.641 159.748C698.484 155.495 703.759 152.98 709.51 152.672C715.253 152.372 720.77 154.317 725.044 158.149L1208.08 591.366C1212.88 595.666 1215.47 601.826 1215.19 608.257ZM256.82 654.698C256.567 660.503 258.905 666.055 263.226 669.935L746.282 1103.14C750.135 1106.6 755.101 1108.35 760.282 1108.08C765.454 1107.81 770.214 1105.54 773.684 1101.7L1208.12 620.241C1211.12 616.914 1212.88 612.623 1213.08 608.164C1213.33 602.359 1210.99 596.806 1206.67 592.927L723.623 159.72C719.77 156.27 714.804 154.513 709.623 154.784C704.451 155.055 699.691 157.317 696.221 161.159L261.786 642.611C258.784 645.939 257.016 650.229 256.829 654.688L256.82 654.698Z" fill="#6772e5"/>
<path d="M1218.78 633.825C1218.56 638.789 1216.56 643.528 1213.15 647.165L782.19 1106.18C778.375 1110.25 773.194 1112.59 767.601 1112.77C762.009 1112.95 756.687 1110.96 752.61 1107.15L292.064 677.424C287.593 673.254 285.19 667.375 285.452 661.271C285.667 656.307 287.668 651.568 291.082 647.931L722.038 188.915C729.922 180.52 743.193 180.081 751.619 187.942L1212.16 617.672C1216.63 621.841 1219.04 627.73 1218.77 633.825H1218.78ZM287.575 661.364C287.341 666.842 289.501 672.133 293.513 675.881L754.06 1105.61C757.726 1109.03 762.514 1110.83 767.536 1110.66C772.558 1110.49 777.215 1108.39 780.647 1104.73L1211.59 645.716C1214.66 642.453 1216.46 638.2 1216.65 633.732C1216.89 628.254 1214.73 622.963 1210.72 619.215L750.169 189.485C742.603 182.418 730.67 182.81 723.591 190.354L292.634 649.38C289.567 652.642 287.771 656.896 287.575 661.364Z" fill="#6772e5"/>
<path d="M1222.37 659.4C1222.16 664.382 1220.11 669.094 1216.61 672.665L789.122 1109.26C781.285 1117.26 768.389 1117.41 760.365 1109.6L322.319 683.34C318.186 679.311 315.951 673.702 316.203 667.935C316.418 662.952 318.466 658.232 321.964 654.661L749.442 218.07C757.269 210.068 770.175 209.909 778.199 217.724L1216.25 643.995C1220.39 648.014 1222.62 653.632 1222.37 659.4ZM318.335 668.028C318.111 673.188 320.103 678.217 323.806 681.826L761.843 1108.09C769.034 1115.08 780.593 1114.94 787.607 1107.78L1215.09 671.188C1218.22 667.991 1220.05 663.766 1220.25 659.307C1220.47 654.137 1218.48 649.117 1214.77 645.509L776.731 219.247C769.539 212.255 757.98 212.395 750.966 219.556L323.488 656.147C320.355 659.344 318.522 663.569 318.326 668.037L318.335 668.028Z" fill="#6772e5"/>
<path d="M1225.97 684.966C1225.75 689.976 1223.65 694.659 1220.06 698.174L796.065 1112.33C788.284 1119.93 775.743 1119.8 768.121 1112.04L352.576 689.247C348.761 685.368 346.713 680.03 346.946 674.599C347.162 669.588 349.266 664.896 352.857 661.39L776.856 247.234C784.637 239.634 797.178 239.765 804.799 247.524L1220.34 670.308C1224.16 674.188 1226.21 679.534 1225.97 684.966ZM349.069 674.702C348.854 679.553 350.687 684.311 354.091 687.779L769.627 1110.56C776.435 1117.49 787.629 1117.6 794.568 1110.82L1218.58 696.66C1221.78 693.528 1223.65 689.34 1223.85 684.872C1224.06 680.03 1222.22 675.263 1218.82 671.794L803.284 249.001C796.476 242.074 785.282 241.962 778.333 248.758L354.334 662.914C351.127 666.046 349.256 670.233 349.06 674.702H349.069Z" fill="#6772e5"/>
<path d="M1229.58 710.533C1229.36 715.571 1227.21 720.226 1223.51 723.666L802.992 1115.4C799.242 1118.88 794.36 1120.72 789.235 1120.54C784.11 1120.36 779.369 1118.21 775.862 1114.48L382.827 695.165C379.273 691.379 377.45 686.443 377.674 681.264C377.899 676.226 380.05 671.561 383.744 668.121L804.264 276.39C811.988 269.193 824.165 269.604 831.384 277.307L1224.43 696.632C1227.97 700.418 1229.81 705.354 1229.58 710.533ZM379.797 681.358C379.601 685.966 381.219 690.351 384.38 693.725L777.414 1113.03C780.519 1116.35 784.746 1118.27 789.3 1118.43C793.855 1118.58 798.204 1116.96 801.533 1113.85L1222.06 722.133C1225.35 719.067 1227.26 714.926 1227.46 710.439C1227.65 705.84 1226.04 701.446 1222.88 698.081L829.832 278.765C823.407 271.913 812.587 271.548 805.704 277.952L385.184 669.682C381.901 672.739 379.984 676.89 379.788 681.367L379.797 681.358Z" fill="#6772e5"/>
<path d="M1233.2 736.1C1232.97 741.167 1230.76 745.813 1226.95 749.178L809.919 1118.47C802.241 1125.27 790.439 1124.58 783.612 1116.92L413.069 701.083C409.843 697.456 408.169 692.792 408.384 687.94C408.608 682.874 410.825 678.228 414.622 674.863L831.663 305.557C839.341 298.761 851.143 299.462 857.97 307.118L1228.51 722.957C1231.75 726.584 1233.41 731.258 1233.2 736.11V736.1ZM410.507 688.034C410.32 692.334 411.788 696.465 414.659 699.681L785.202 1115.52C791.253 1122.31 801.708 1122.92 808.517 1116.9L1225.55 747.598C1228.92 744.616 1230.88 740.503 1231.08 736.007C1231.26 731.716 1229.78 727.575 1226.92 724.359L856.38 308.52C850.329 301.734 839.883 301.117 833.065 307.146L416.024 676.442C412.658 679.424 410.684 683.547 410.497 688.034H410.507Z" fill="#6772e5"/>
</g>
</g>
<defs>
<linearGradient id="paint0_linear_3209_2148" x1="597.597" y1="1089.88" x2="597.597" y2="-84.9004" gradientUnits="userSpaceOnUse">
<stop stop-color="#FFBE5F" stop-opacity="0"/>
<stop offset="1" stop-color="#ECF6FF"/>
</linearGradient>
<linearGradient id="paint1_linear_3209_2148" x1="614.755" y1="1092.41" x2="614.755" y2="-55.1803" gradientUnits="userSpaceOnUse">
<stop stop-color="#FFBE5F" stop-opacity="0"/>
<stop offset="1" stop-color="#ECF6FF"/>
</linearGradient>
<linearGradient id="paint2_linear_3209_2148" x1="631.928" y1="1094.92" x2="631.928" y2="-25.4697" gradientUnits="userSpaceOnUse">
<stop stop-color="#FFBE5F" stop-opacity="0"/>
<stop offset="1" stop-color="#ECF6FF"/>
</linearGradient>
<linearGradient id="paint3_linear_3209_2148" x1="649.102" y1="1097.47" x2="649.102" y2="4.22229" gradientUnits="userSpaceOnUse">
<stop stop-color="#FFBE5F" stop-opacity="0"/>
<stop offset="1" stop-color="#ECF6FF"/>
</linearGradient>
<linearGradient id="paint4_linear_3209_2148" x1="666.281" y1="1100" x2="666.281" y2="33.9141" gradientUnits="userSpaceOnUse">
<stop stop-color="#FFBE5F" stop-opacity="0"/>
<stop offset="1" stop-color="#ECF6FF"/>
</linearGradient>
<linearGradient id="paint5_linear_3209_2148" x1="683.439" y1="1102.54" x2="683.439" y2="63.6221" gradientUnits="userSpaceOnUse">
<stop stop-color="#FFBE5F" stop-opacity="0"/>
<stop offset="1" stop-color="#ECF6FF"/>
</linearGradient>
<linearGradient id="paint6_linear_3209_2148" x1="700.609" y1="1105.1" x2="700.609" y2="93.311" gradientUnits="userSpaceOnUse">
<stop stop-color="#FFBE5F" stop-opacity="0"/>
<stop offset="1" stop-color="#ECF6FF"/>
</linearGradient>
<linearGradient id="paint7_linear_3209_2148" x1="717.787" y1="1107.65" x2="717.787" y2="122.964" gradientUnits="userSpaceOnUse">
<stop stop-color="#FFBE5F" stop-opacity="0"/>
<stop offset="1" stop-color="#ECF6FF"/>
</linearGradient>
<linearGradient id="paint8_linear_3209_2148" x1="734.948" y1="1110.22" x2="734.948" y2="152.642" gradientUnits="userSpaceOnUse">
<stop stop-color="#FFBE5F" stop-opacity="0"/>
<stop offset="1" stop-color="#ECF6FF"/>
</linearGradient>
<linearGradient id="paint9_linear_3209_2148" x1="752.11" y1="1112.78" x2="752.11" y2="182.321" gradientUnits="userSpaceOnUse">
<stop stop-color="#FFBE5F" stop-opacity="0"/>
<stop offset="1" stop-color="#ECF6FF"/>
</linearGradient>
<linearGradient id="paint10_linear_3209_2148" x1="769.287" y1="1115.36" x2="769.287" y2="211.964" gradientUnits="userSpaceOnUse">
<stop stop-color="#FFBE5F" stop-opacity="0"/>
<stop offset="1" stop-color="#ECF6FF"/>
</linearGradient>
<linearGradient id="paint11_linear_3209_2148" x1="786.46" y1="1117.95" x2="786.46" y2="241.618" gradientUnits="userSpaceOnUse">
<stop stop-color="#FFBE5F" stop-opacity="0"/>
<stop offset="1" stop-color="#ECF6FF"/>
</linearGradient>
<linearGradient id="paint12_linear_3209_2148" x1="803.628" y1="1120.55" x2="803.628" y2="271.25" gradientUnits="userSpaceOnUse">
<stop stop-color="#FFBE5F" stop-opacity="0"/>
<stop offset="1" stop-color="#ECF6FF"/>
</linearGradient>
<linearGradient id="paint13_linear_3209_2148" x1="820.791" y1="1123.15" x2="820.791" y2="300.885" gradientUnits="userSpaceOnUse">
<stop stop-color="#FFBE5F" stop-opacity="0"/>
<stop offset="1" stop-color="#ECF6FF"/>
</linearGradient>
</defs>
</svg>
